<svg xmlns="http://www.w3.org/2000/svg" viewBox="0 0 500 500"><g id="freepik--Clouds--inject-24"><path id="freepik--Cloud--inject-24" d="M465.45,72.37a6.76,6.76,0,0,0-2.2-.4c-.72-.06-.94-.2-1.08-.35a5.25,5.25,0,0,0-6.31-1.87,4,4,0,0,0-4.76-2.69c.08-2.22-2.76-4.6-5.3-5.14s-4.57-.31-6,1.3c-1.5-2.91-7.34-3.73-10.5-2.19-1.82.88-3.36,1.79-4.12,3.46a6.92,6.92,0,0,0-.68,3.31,5.85,5.85,0,0,0-5.35-.74c-1.78.69-1.91,2-2,3.38a6.22,6.22,0,0,0-3.23,0c-1.12.33-1.76,1.21-1.61,1.92-.88,0-3,.66-2.75,1.6s2.68.94,3.58.9a15.77,15.77,0,0,0,2.52-.39,3.9,3.9,0,0,0,1.3.25c1.54,0,2.19-.67,2.43-1.24.75,1.58,3.41,2.78,5.29,3.26,3.55.9,8.56.35,10.75-2.3a3.88,3.88,0,0,0,1,1.29A6.21,6.21,0,0,0,439.8,77c1.46.13,5.36.32,6.46-2,.78,1.53,4.26,2.24,6.9,1.86a10.81,10.81,0,0,0,3-.89,19.8,19.8,0,0,0,1.71-1,1.4,1.4,0,0,1,1.45-.1,8.66,8.66,0,0,0,5.77,0C466.53,74.24,466.84,73,465.45,72.37Z" style="fill:#f0f0f0"></path><path id="freepik--cloud--inject-24" d="M69.69,62.68a5.63,5.63,0,0,0-1.89-.35c-.62,0-.81-.17-.93-.3a4.51,4.51,0,0,0-5.42-1.61,3.47,3.47,0,0,0-4.09-2.31c.07-1.9-2.37-4-4.55-4.42s-3.93-.26-5.13,1.12c-1.28-2.5-6.3-3.2-9-1.88-1.57.76-2.89,1.54-3.54,3a6,6,0,0,0-.59,2.85A5,5,0,0,0,30,58.11c-1.53.59-1.64,1.74-1.72,2.91A5.31,5.31,0,0,0,25.46,61c-1,.28-1.52,1-1.39,1.65-.76,0-2.57.57-2.36,1.37s2.3.81,3.08.78A13.57,13.57,0,0,0,27,64.43a3.23,3.23,0,0,0,1.12.22c1.32,0,1.88-.58,2.09-1.07.64,1.36,2.93,2.39,4.54,2.8,3,.78,7.36.31,9.23-2a3.53,3.53,0,0,0,.91,1.11,5.28,5.28,0,0,0,2.81,1.14c1.25.11,4.61.27,5.55-1.71.67,1.32,3.66,1.92,5.93,1.6a9.43,9.43,0,0,0,2.55-.77,14.86,14.86,0,0,0,1.46-.88,1.21,1.21,0,0,1,1.24-.08,7.41,7.41,0,0,0,5,0C70.61,64.28,70.88,63.22,69.69,62.68Z" style="fill:#f5f5f5"></path></g><g id="freepik--Floor--inject-24"><g id="freepik--floor--inject-24"><path d="M77.7,226.6c-95.16,58.61-95.16,153.64,0,212.26s249.45,58.62,344.6,0,95.16-153.65,0-212.26S172.85,168,77.7,226.6Z" style="fill:#1472F4"></path><path d="M77.7,226.6c-95.16,58.61-95.16,153.64,0,212.26s249.45,58.62,344.6,0,95.16-153.65,0-212.26S172.85,168,77.7,226.6Z" style="fill:#fff;opacity:0.6000000000000001"></path><path d="M216.44,413,171,386.76,79.11,439.71a268.9,268.9,0,0,0,50.54,23.56Z" style="fill:#fafafa"></path><path d="M488.19,301l-305,176.09c82.25,14.39,174.37,1.66,239.11-38.23C483.06,401.44,505,349.16,488.19,301Z" style="fill:#e0e0e0"></path></g></g><g id="freepik--Trees--inject-24"><g id="freepik--Tree--inject-24"><g id="freepik--tree--inject-24"><path d="M116.5,299.73a3.49,3.49,0,0,0-1.92.35,19.9,19.9,0,0,0-3.13,2.21,6.31,6.31,0,0,1-3.47,1.5,2.79,2.79,0,0,1-2.89-2,1.94,1.94,0,0,0-.16-.64.94.94,0,0,0-1.1-.28,5.8,5.8,0,0,0-1,.6c-1.3.77-2.92.59-4.41.38-1.23-.18-2.79-.73-2.79-2,0-.81.72-1.42,1.28-2s1-1.54.5-2.18a1.53,1.53,0,0,0-.72-.44c-1.54-.5-3.44.17-4.74-.8a2.73,2.73,0,0,1-.69-3.27A4.12,4.12,0,0,1,94,289c1-.27,2.36-.39,2.74-1.39a2.18,2.18,0,0,0-1.11-2.36,8.16,8.16,0,0,1-2.23-1.69,2.68,2.68,0,0,1-.07-2.77,3.34,3.34,0,0,1,2.33-1.6,5.15,5.15,0,0,0,1.41-.31,1,1,0,0,0,.53-1.2c-.14-.25-.44-.38-.61-.62a1.13,1.13,0,0,1,.42-1.47A5.7,5.7,0,0,1,99,275c1.12-.37,1.7-1,1.37-2.1s-2-1.1-2.42-2.23.74-3.14,1.64-3.75a19.45,19.45,0,0,1,3-1.33,3.19,3.19,0,0,0,2-2.38c.08-1.11-.76-2.05-1.44-2.93s-1.26-2.13-.66-3.07,1.84-1,2.86-1.29a4.61,4.61,0,0,0,2.82-2.54c.28-.63.41-1.32.73-1.92,1-1.87,3.57-2.69,5.54-2.46a2.23,2.23,0,0,1,1.89,1.28,3.08,3.08,0,0,1,.69,1.29c.14.91-.33,2.06.52,2.75,1.3,1,3.28-.36,3.21,2a10,10,0,0,1-.43,2.93c-.36,1-1.07,1.41-.48,2.52.77,1.43,1.26,1.42,2.79,1.42,1.11,0,2-.06,2.84.77,1.43,1.48.58,2.81-.69,4-1.44,1.29-.67,1.86-.49,3.53.09.81-.09,1.06.63,1.59,1.36,1,2.13.67,1.74,2.65-.35,1.81.19,1.19,1.76,1.86,1.39.6,2.31,2.1,3.43,3,.73.6,1.83,1.07,1.9,2.12.13,2-2.38,1.58-3.57,2.06-1.95.78-1.37,3.34.15,4.29s4,1.39,4.09,3.7c.1,1.77-.91,2.16-2.28,2.76-1.1.47-1,.61-1,1.92,0,2.64-.89,3.39-3.49,3a6.49,6.49,0,0,0-2.51-.21c-1,.3-.66.54-.69,1.38-.07,2.13-2.55,1.53-3.6.62C119.67,301.11,118.14,299.89,116.5,299.73Z" style="fill:#1472F4"></path><path d="M96.64,295.23c-1.18-.38-2.57-.08-3.75-.35a14.33,14.33,0,0,1,2.1-.34,6,6,0,0,1,4.54,1.8,4.1,4.1,0,0,0-.91,2.73c2.95.8,5.85-3.16,8.66-1.95-.17,1.42,0,3.34,1.39,3.66a2.27,2.27,0,0,0,2.14-1c.51-.67.82-1.47,1.33-2.14a4.52,4.52,0,0,1,6-.87c.76.55,1.71,1.39,2.48.84s.32-2.2,1.22-2.65c.6-.3,1.44.17,1.94-.27a1.3,1.3,0,0,0,.34-.74c.36-1.5.67-3.25-.28-4.47s-2.63-1.76-2.44-3.13c.17-1.16,1.65-1.52,2.82-1.65s2.66-.69,2.6-1.87-1.63-1.71-1.86-2.84c-.1-.49.07-1-.15-1.47-.34-.66-1.29-.69-1.85-1.18-1-.89-.22-2.55-.5-3.85-.21-.93-.95-1.65-1.2-2.57-.5-1.82,1.16-3.56,2.9-4.3a11.47,11.47,0,0,0,2-.91l.06-.05a3.62,3.62,0,0,1-1.43,2.28c-1.44,1.29-.67,1.86-.49,3.53.09.81-.09,1.06.63,1.59,1.36,1,2.13.67,1.74,2.65-.35,1.81.19,1.19,1.76,1.86,1.39.6,2.31,2.1,3.43,3,.73.6,1.83,1.07,1.9,2.12.13,2-2.38,1.58-3.57,2.06-1.95.78-1.37,3.34.15,4.29s4,1.39,4.09,3.7c.1,1.77-.91,2.16-2.28,2.76-1.1.47-1,.61-1,1.92,0,2.64-.89,3.39-3.49,3a6.49,6.49,0,0,0-2.51-.21c-1,.3-.66.54-.69,1.38-.07,2.13-2.55,1.53-3.6.62-1.21-1.06-2.74-2.28-4.38-2.44a3.49,3.49,0,0,0-1.92.35,19.9,19.9,0,0,0-3.13,2.21,6.31,6.31,0,0,1-3.47,1.5,2.79,2.79,0,0,1-2.89-2,1.94,1.94,0,0,0-.16-.64.94.94,0,0,0-1.1-.28,5.8,5.8,0,0,0-1,.6c-1.3.77-2.92.59-4.41.38-1.23-.18-2.79-.73-2.79-2,0-.82.72-1.42,1.28-2s1-1.54.5-2.18A1.53,1.53,0,0,0,96.64,295.23Z" style="opacity:0.2"></path><path d="M120.56,278l-7.1,14.09v-6.49L112.73,258l-1,27.61V290l-7.81-13.66,7.81,16.76v42.79a.45.45,0,0,0,.26.36,1.4,1.4,0,0,0,1.26,0,.45.45,0,0,0,.26-.36V295.66Z" style="fill:#263238"></path></g></g><g id="freepik--tree--inject-24"><g id="freepik--tree--inject-24"><path d="M91.16,317.73a3.11,3.11,0,0,0-1.74.31,17.18,17.18,0,0,0-2.82,2,5.73,5.73,0,0,1-3.14,1.36,2.53,2.53,0,0,1-2.61-1.82,1.84,1.84,0,0,0-.15-.58.84.84,0,0,0-1-.26,5,5,0,0,0-.95.55,6.16,6.16,0,0,1-4,.34c-1.11-.16-2.53-.66-2.52-1.79,0-.74.65-1.28,1.15-1.82s.92-1.39.46-2a1.33,1.33,0,0,0-.65-.4c-1.4-.45-3.11.15-4.29-.72a2.47,2.47,0,0,1-.62-3,3.75,3.75,0,0,1,2.52-1.92c.94-.24,2.13-.35,2.48-1.26s-.31-1.64-1-2.13a7.18,7.18,0,0,1-2-1.53,2.41,2.41,0,0,1-.07-2.5,3,3,0,0,1,2.11-1.45,4.57,4.57,0,0,0,1.28-.28.86.86,0,0,0,.47-1.08c-.13-.23-.39-.35-.55-.56a1,1,0,0,1,.38-1.33,5.05,5.05,0,0,1,1.43-.55c1-.34,1.54-.87,1.24-1.9s-1.76-1-2.19-2,.67-2.83,1.48-3.39a19.79,19.79,0,0,1,2.7-1.2,2.85,2.85,0,0,0,1.82-2.14c.08-1-.68-1.86-1.29-2.66s-1.14-1.92-.61-2.77,1.67-.87,2.59-1.16a4.21,4.21,0,0,0,2.55-2.3c.25-.57.37-1.19.66-1.74.92-1.69,3.23-2.43,5-2.22A2,2,0,0,1,91,273a2.69,2.69,0,0,1,.62,1.17c.14.82-.29,1.86.48,2.49,1.17.95,3-.33,2.9,1.79a8.7,8.7,0,0,1-.39,2.64c-.32.9-1,1.28-.43,2.28.69,1.29,1.14,1.29,2.52,1.28a3.11,3.11,0,0,1,2.57.71c1.29,1.33.52,2.54-.62,3.56-1.3,1.17-.61,1.68-.45,3.2.09.72-.08.95.57,1.43,1.23.92,1.92.61,1.57,2.4-.31,1.63.18,1.07,1.59,1.68s2.09,1.89,3.11,2.74c.65.54,1.65,1,1.71,1.91.12,1.83-2.15,1.43-3.23,1.86-1.76.71-1.23,3,.14,3.89s3.58,1.25,3.69,3.34c.09,1.6-.82,1.95-2.06,2.49-1,.43-.86.55-.86,1.73,0,2.39-.8,3.07-3.16,2.68a5.83,5.83,0,0,0-2.27-.19c-.9.27-.59.49-.62,1.25-.06,1.92-2.31,1.38-3.26.56A7.69,7.69,0,0,0,91.16,317.73Z" style="fill:#1472F4"></path><path d="M91.16,317.73a3.11,3.11,0,0,0-1.74.31,17.18,17.18,0,0,0-2.82,2,5.73,5.73,0,0,1-3.14,1.36,2.53,2.53,0,0,1-2.61-1.82,1.84,1.84,0,0,0-.15-.58.84.84,0,0,0-1-.26,5,5,0,0,0-.95.55,6.16,6.16,0,0,1-4,.34c-1.11-.16-2.53-.66-2.52-1.79,0-.74.65-1.28,1.15-1.82s.92-1.39.46-2a1.33,1.33,0,0,0-.65-.4c-1.4-.45-3.11.15-4.29-.72a2.47,2.47,0,0,1-.62-3,3.75,3.75,0,0,1,2.52-1.92c.94-.24,2.13-.35,2.48-1.26s-.31-1.64-1-2.13a7.18,7.18,0,0,1-2-1.53,2.41,2.41,0,0,1-.07-2.5,3,3,0,0,1,2.11-1.45,4.57,4.57,0,0,0,1.28-.28.86.86,0,0,0,.47-1.08c-.13-.23-.39-.35-.55-.56a1,1,0,0,1,.38-1.33,5.05,5.05,0,0,1,1.43-.55c1-.34,1.54-.87,1.24-1.9s-1.76-1-2.19-2,.67-2.83,1.48-3.39a19.79,19.79,0,0,1,2.7-1.2,2.85,2.85,0,0,0,1.82-2.14c.08-1-.68-1.86-1.29-2.66s-1.14-1.92-.61-2.77,1.67-.87,2.59-1.16a4.21,4.21,0,0,0,2.55-2.3c.25-.57.37-1.19.66-1.74.92-1.69,3.23-2.43,5-2.22A2,2,0,0,1,91,273a2.69,2.69,0,0,1,.62,1.17c.14.82-.29,1.86.48,2.49,1.17.95,3-.33,2.9,1.79a8.7,8.7,0,0,1-.39,2.64c-.32.9-1,1.28-.43,2.28.69,1.29,1.14,1.29,2.52,1.28a3.11,3.11,0,0,1,2.57.71c1.29,1.33.52,2.54-.62,3.56-1.3,1.17-.61,1.68-.45,3.2.09.72-.08.95.57,1.43,1.23.92,1.92.61,1.57,2.4-.31,1.63.18,1.07,1.59,1.68s2.09,1.89,3.11,2.74c.65.54,1.65,1,1.71,1.91.12,1.83-2.15,1.43-3.23,1.86-1.76.71-1.23,3,.14,3.89s3.58,1.25,3.69,3.34c.09,1.6-.82,1.95-2.06,2.49-1,.43-.86.55-.86,1.73,0,2.39-.8,3.07-3.16,2.68a5.83,5.83,0,0,0-2.27-.19c-.9.27-.59.49-.62,1.25-.06,1.92-2.31,1.38-3.26.56A7.69,7.69,0,0,0,91.16,317.73Z" style="opacity:0.30000000000000004"></path><path d="M73.21,313.66c-1.07-.35-2.33-.07-3.39-.32a12.7,12.7,0,0,1,1.9-.3,5.37,5.37,0,0,1,4.1,1.62,3.69,3.69,0,0,0-.82,2.47c2.66.72,5.29-2.85,7.83-1.77-.16,1.29,0,3,1.25,3.31a2,2,0,0,0,1.94-.93c.46-.6.74-1.33,1.2-1.93a4.09,4.09,0,0,1,5.42-.79c.69.5,1.55,1.26,2.24.76s.29-2,1.1-2.4c.54-.27,1.31.16,1.76-.24a1.2,1.2,0,0,0,.31-.66c.32-1.37.6-2.94-.25-4.05s-2.38-1.59-2.21-2.82c.15-1.06,1.49-1.38,2.55-1.5s2.4-.62,2.34-1.69-1.46-1.54-1.67-2.57c-.09-.44.06-.92-.14-1.32-.3-.6-1.17-.63-1.67-1.07-.9-.8-.2-2.3-.46-3.48-.18-.84-.86-1.49-1.08-2.32-.45-1.65,1.05-3.22,2.62-3.89a9.41,9.41,0,0,0,1.79-.83l0,0A3.22,3.22,0,0,1,98.64,289c-1.31,1.17-.61,1.68-.45,3.2.09.72-.08.95.57,1.43,1.23.92,1.92.61,1.57,2.4-.31,1.63.18,1.07,1.59,1.68s2.09,1.89,3.11,2.74c.65.54,1.65,1,1.71,1.91.12,1.83-2.15,1.43-3.23,1.86-1.76.71-1.23,3,.14,3.89s3.58,1.25,3.69,3.34c.09,1.6-.82,1.95-2.06,2.49-1,.43-.86.55-.86,1.73,0,2.39-.8,3.07-3.16,2.68a5.83,5.83,0,0,0-2.27-.19c-.9.27-.59.49-.62,1.25-.06,1.92-2.31,1.38-3.26.56a7.69,7.69,0,0,0-4-2.2,3.11,3.11,0,0,0-1.74.31,17.18,17.18,0,0,0-2.82,2,5.73,5.73,0,0,1-3.14,1.36,2.53,2.53,0,0,1-2.61-1.82,1.84,1.84,0,0,0-.15-.58.84.84,0,0,0-1-.26,5,5,0,0,0-.95.55,6.16,6.16,0,0,1-4,.34c-1.11-.16-2.53-.66-2.52-1.79,0-.74.65-1.28,1.15-1.82s.92-1.39.46-2A1.33,1.33,0,0,0,73.21,313.66Z" style="opacity:0.2"></path><path d="M94.83,298.07,88.41,310.8v-5.86l-.66-25-1,25v3.94l-7-12.34,7,15.15v38.68a.4.4,0,0,0,.24.32,1.25,1.25,0,0,0,1.13,0,.4.4,0,0,0,.24-.32V314.05Z" style="fill:#263238"></path></g></g><g id="freepik--tree--inject-24"><g id="freepik--tree--inject-24"><path d="M67.44,328.08a3.6,3.6,0,0,0-1.92.35,19.32,19.32,0,0,0-3.13,2.22,6.29,6.29,0,0,1-3.47,1.49,2.78,2.78,0,0,1-2.89-2,1.94,1.94,0,0,0-.16-.64.94.94,0,0,0-1.1-.28,5.85,5.85,0,0,0-1.05.61,6.76,6.76,0,0,1-4.41.37c-1.23-.18-2.79-.73-2.79-2,0-.81.72-1.42,1.28-2s1-1.54.5-2.17a1.53,1.53,0,0,0-.72-.44c-1.54-.51-3.44.17-4.74-.8a2.74,2.74,0,0,1-.69-3.28,4.17,4.17,0,0,1,2.79-2.12c1-.27,2.36-.39,2.74-1.39s-.34-1.82-1.11-2.36A8.16,8.16,0,0,1,44.34,312a2.68,2.68,0,0,1-.07-2.77,3.37,3.37,0,0,1,2.33-1.6,5.15,5.15,0,0,0,1.41-.31,1,1,0,0,0,.53-1.19c-.14-.26-.44-.39-.61-.63a1.13,1.13,0,0,1,.42-1.47,5.7,5.7,0,0,1,1.58-.61c1.12-.37,1.7-1,1.37-2.1s-1.95-1.09-2.42-2.23.74-3.14,1.64-3.75a20.47,20.47,0,0,1,3-1.33,3.19,3.19,0,0,0,2-2.37c.08-1.12-.76-2.06-1.44-2.94s-1.26-2.12-.66-3.07,1.84-1,2.86-1.28a4.65,4.65,0,0,0,2.82-2.55c.28-.63.41-1.31.73-1.92,1-1.87,3.57-2.69,5.54-2.46a2.25,2.25,0,0,1,1.89,1.28,3.2,3.2,0,0,1,.69,1.29c.14.91-.33,2.06.52,2.75,1.3,1.05,3.28-.36,3.21,2a10,10,0,0,1-.43,2.92c-.36,1-1.06,1.41-.48,2.52.77,1.43,1.26,1.42,2.79,1.42,1.11,0,2-.06,2.84.78,1.43,1.47.58,2.81-.69,3.94-1.44,1.29-.67,1.86-.48,3.54.08.8-.1,1.05.62,1.58,1.36,1,2.13.67,1.74,2.65-.35,1.81.19,1.19,1.76,1.87,1.39.6,2.31,2.09,3.43,3,.73.6,1.83,1.06,1.9,2.11.13,2-2.38,1.58-3.57,2.06-2,.79-1.37,3.34.15,4.3s4,1.38,4.09,3.69c.1,1.77-.91,2.17-2.28,2.76-1.1.47-1,.61-1,1.92,0,2.64-.89,3.39-3.49,3a6.49,6.49,0,0,0-2.51-.21c-1,.3-.66.55-.69,1.38-.07,2.13-2.55,1.53-3.6.62C70.61,329.47,69.08,328.24,67.44,328.08Z" style="fill:#1472F4"></path><path d="M47.58,323.59c-1.18-.39-2.57-.09-3.75-.36a13.07,13.07,0,0,1,2.1-.33,5.94,5.94,0,0,1,4.54,1.8,4.05,4.05,0,0,0-.91,2.72c2.95.8,5.85-3.15,8.66-1.95-.17,1.43,0,3.35,1.39,3.66a2.25,2.25,0,0,0,2.14-1c.51-.67.82-1.47,1.33-2.13a4.51,4.51,0,0,1,6-.88c.76.55,1.71,1.39,2.48.84s.32-2.2,1.22-2.65c.6-.3,1.44.18,1.94-.27a1.39,1.39,0,0,0,.35-.73c.35-1.51.66-3.25-.29-4.48s-2.63-1.76-2.44-3.12c.17-1.17,1.65-1.52,2.82-1.66s2.66-.69,2.6-1.87-1.63-1.71-1.86-2.84c-.1-.49.07-1-.15-1.47-.34-.66-1.29-.69-1.85-1.18-1-.89-.22-2.55-.5-3.85-.21-.93-1-1.65-1.2-2.56-.5-1.83,1.16-3.56,2.9-4.31a10.77,10.77,0,0,0,2-.91l.06,0a3.6,3.6,0,0,1-1.43,2.28c-1.44,1.29-.67,1.86-.48,3.54.08.8-.1,1.05.62,1.58,1.36,1,2.13.67,1.74,2.65-.35,1.81.19,1.19,1.76,1.87,1.39.6,2.31,2.09,3.43,3,.73.6,1.83,1.06,1.9,2.11.13,2-2.38,1.58-3.57,2.06-2,.79-1.37,3.34.15,4.3s4,1.38,4.09,3.69c.1,1.77-.91,2.17-2.28,2.76-1.1.47-1,.61-1,1.92,0,2.64-.89,3.39-3.49,3a6.49,6.49,0,0,0-2.51-.21c-1,.3-.66.55-.69,1.38-.07,2.13-2.55,1.53-3.6.62-1.21-1-2.74-2.28-4.38-2.44a3.6,3.6,0,0,0-1.92.35,19.32,19.32,0,0,0-3.13,2.22,6.29,6.29,0,0,1-3.47,1.49,2.78,2.78,0,0,1-2.89-2,1.94,1.94,0,0,0-.16-.64.94.94,0,0,0-1.1-.28,5.85,5.85,0,0,0-1.05.61,6.76,6.76,0,0,1-4.41.37c-1.23-.18-2.79-.73-2.79-2,0-.81.72-1.42,1.28-2s1-1.54.5-2.17A1.53,1.53,0,0,0,47.58,323.59Z" style="opacity:0.2"></path><path d="M71.5,306.33l-7.1,14.09v-6.48l-.73-27.61-1.05,27.61v4.36l-7.81-13.65,7.81,16.75v42.8a.45.45,0,0,0,.26.36,1.4,1.4,0,0,0,1.26,0,.45.45,0,0,0,.26-.36V324Z" style="fill:#263238"></path></g></g><g id="freepik--tree--inject-24"><g id="freepik--tree--inject-24"><path d="M42.1,346.08a3.2,3.2,0,0,0-1.74.31,18.46,18.46,0,0,0-2.82,2,5.73,5.73,0,0,1-3.14,1.36,2.51,2.51,0,0,1-2.61-1.82,1.84,1.84,0,0,0-.15-.58.85.85,0,0,0-1-.26,5.59,5.59,0,0,0-.95.55,6.07,6.07,0,0,1-4,.34c-1.12-.16-2.53-.65-2.53-1.79,0-.73.65-1.28,1.15-1.81s.92-1.4.46-2a1.33,1.33,0,0,0-.65-.4c-1.4-.45-3.11.16-4.29-.72a2.47,2.47,0,0,1-.62-3,3.75,3.75,0,0,1,2.52-1.92c.94-.24,2.13-.35,2.48-1.25s-.31-1.65-1-2.14a7.18,7.18,0,0,1-2-1.53,2.41,2.41,0,0,1-.07-2.5,3.08,3.08,0,0,1,2.11-1.45,4.57,4.57,0,0,0,1.28-.28.84.84,0,0,0,.47-1.07c-.13-.23-.39-.35-.54-.57a1,1,0,0,1,.37-1.33,5.37,5.37,0,0,1,1.43-.55c1-.33,1.54-.87,1.24-1.9s-1.76-1-2.19-2S26,317,26.8,316.44a19.84,19.84,0,0,1,2.7-1.21,2.85,2.85,0,0,0,1.82-2.14c.08-1-.68-1.86-1.29-2.66s-1.14-1.91-.61-2.77,1.67-.87,2.59-1.16a4.21,4.21,0,0,0,2.55-2.3c.25-.57.37-1.19.66-1.73.92-1.7,3.23-2.44,5-2.23a2,2,0,0,1,1.7,1.15,2.73,2.73,0,0,1,.62,1.18c.14.81-.29,1.86.48,2.48,1.17.95,3-.33,2.9,1.79a8.81,8.81,0,0,1-.39,2.65c-.32.89-1,1.27-.43,2.27.69,1.3,1.14,1.29,2.52,1.29a3.1,3.1,0,0,1,2.57.7c1.29,1.33.52,2.54-.62,3.57-1.3,1.16-.61,1.67-.45,3.19.09.73-.08.95.57,1.43,1.23.92,1.92.61,1.57,2.4s.18,1.07,1.59,1.68,2.09,1.9,3.11,2.74c.65.54,1.65,1,1.71,1.92.12,1.82-2.15,1.42-3.23,1.85-1.76.72-1.23,3,.14,3.89s3.58,1.25,3.69,3.34c.09,1.6-.82,1.95-2.06,2.49-1,.43-.86.55-.86,1.74,0,2.38-.8,3.06-3.16,2.67a5.83,5.83,0,0,0-2.27-.19c-.9.27-.59.5-.62,1.25-.06,1.93-2.31,1.38-3.26.56A7.76,7.76,0,0,0,42.1,346.08Z" style="fill:#1472F4"></path><path d="M42.1,346.08a3.2,3.2,0,0,0-1.74.31,18.46,18.46,0,0,0-2.82,2,5.73,5.73,0,0,1-3.14,1.36,2.51,2.51,0,0,1-2.61-1.82,1.84,1.84,0,0,0-.15-.58.85.85,0,0,0-1-.26,5.59,5.59,0,0,0-.95.55,6.07,6.07,0,0,1-4,.34c-1.12-.16-2.53-.65-2.53-1.79,0-.73.65-1.28,1.15-1.81s.92-1.4.46-2a1.33,1.33,0,0,0-.65-.4c-1.4-.45-3.11.16-4.29-.72a2.47,2.47,0,0,1-.62-3,3.75,3.75,0,0,1,2.52-1.92c.94-.24,2.13-.35,2.48-1.25s-.31-1.65-1-2.14a7.18,7.18,0,0,1-2-1.53,2.41,2.41,0,0,1-.07-2.5,3.08,3.08,0,0,1,2.11-1.45,4.57,4.57,0,0,0,1.28-.28.84.84,0,0,0,.47-1.07c-.13-.23-.39-.35-.54-.57a1,1,0,0,1,.37-1.33,5.37,5.37,0,0,1,1.43-.55c1-.33,1.54-.87,1.24-1.9s-1.76-1-2.19-2S26,317,26.8,316.44a19.84,19.84,0,0,1,2.7-1.21,2.85,2.85,0,0,0,1.82-2.14c.08-1-.68-1.86-1.29-2.66s-1.14-1.91-.61-2.77,1.67-.87,2.59-1.16a4.21,4.21,0,0,0,2.55-2.3c.25-.57.37-1.19.66-1.73.92-1.7,3.23-2.44,5-2.23a2,2,0,0,1,1.7,1.15,2.73,2.73,0,0,1,.62,1.18c.14.81-.29,1.86.48,2.48,1.17.95,3-.33,2.9,1.79a8.81,8.81,0,0,1-.39,2.65c-.32.89-1,1.27-.43,2.27.69,1.3,1.14,1.29,2.52,1.29a3.1,3.1,0,0,1,2.57.7c1.29,1.33.52,2.54-.62,3.57-1.3,1.16-.61,1.67-.45,3.19.09.73-.08.95.57,1.43,1.23.92,1.92.61,1.57,2.4s.18,1.07,1.59,1.68,2.09,1.9,3.11,2.74c.65.54,1.65,1,1.71,1.92.12,1.82-2.15,1.42-3.23,1.85-1.76.72-1.23,3,.14,3.89s3.58,1.25,3.69,3.34c.09,1.6-.82,1.95-2.06,2.49-1,.43-.86.55-.86,1.74,0,2.38-.8,3.06-3.16,2.67a5.83,5.83,0,0,0-2.27-.19c-.9.27-.59.5-.62,1.25-.06,1.93-2.31,1.38-3.26.56A7.76,7.76,0,0,0,42.1,346.08Z" style="opacity:0.30000000000000004"></path><path d="M24.15,342c-1.07-.35-2.33-.07-3.39-.32a12.91,12.91,0,0,1,1.9-.3,5.35,5.35,0,0,1,4.1,1.63,3.65,3.65,0,0,0-.82,2.46c2.66.72,5.29-2.85,7.83-1.77-.16,1.29,0,3,1.25,3.31a2,2,0,0,0,1.94-.93c.46-.6.74-1.33,1.2-1.93a4.09,4.09,0,0,1,5.42-.79c.69.5,1.55,1.26,2.24.76s.29-2,1.1-2.39c.54-.27,1.31.16,1.76-.25a1.2,1.2,0,0,0,.31-.66c.32-1.36.6-2.94-.25-4.05s-2.38-1.59-2.21-2.82c.15-1.06,1.49-1.37,2.55-1.5s2.4-.62,2.34-1.68-1.46-1.55-1.67-2.58c-.09-.43.06-.92-.14-1.32-.3-.6-1.17-.63-1.67-1.07-.9-.8-.2-2.3-.46-3.48-.18-.84-.86-1.49-1.08-2.32-.45-1.65,1.05-3.21,2.62-3.89a10,10,0,0,0,1.79-.82l0-.05a3.26,3.26,0,0,1-1.28,2.07c-1.3,1.16-.61,1.67-.45,3.19.09.73-.08.95.57,1.43,1.23.92,1.92.61,1.57,2.4s.18,1.07,1.59,1.68,2.09,1.9,3.11,2.74c.65.54,1.65,1,1.71,1.92.12,1.82-2.15,1.42-3.23,1.85-1.76.72-1.23,3,.14,3.89s3.58,1.25,3.69,3.34c.09,1.6-.82,1.95-2.06,2.49-1,.43-.86.55-.86,1.74,0,2.38-.8,3.06-3.16,2.67a5.83,5.83,0,0,0-2.27-.19c-.9.27-.59.5-.62,1.25-.06,1.93-2.31,1.38-3.26.56a7.76,7.76,0,0,0-3.95-2.2,3.2,3.2,0,0,0-1.74.31,18.46,18.46,0,0,0-2.82,2,5.73,5.73,0,0,1-3.14,1.36,2.51,2.51,0,0,1-2.61-1.82,1.84,1.84,0,0,0-.15-.58.85.85,0,0,0-1-.26,5.59,5.59,0,0,0-.95.55,6.07,6.07,0,0,1-4,.34c-1.12-.16-2.53-.65-2.53-1.79,0-.73.65-1.28,1.15-1.81s.92-1.4.46-2A1.33,1.33,0,0,0,24.15,342Z" style="opacity:0.2"></path><path d="M45.77,326.42l-6.42,12.73v-5.86l-.66-25-.95,25v3.94l-7-12.34L37.74,340v38.68A.39.39,0,0,0,38,379a1.19,1.19,0,0,0,1.13,0,.39.39,0,0,0,.24-.32V342.4Z" style="fill:#263238"></path></g></g></g><g id="freepik--Signs--inject-24"><g id="freepik--Signal--inject-24"><polygon points="87.25 371.7 87.25 421.28 87.89 420.91 87.89 371.32 87.25 371.7" style="fill:#263238"></polygon><polygon points="86.38 371.19 86.38 420.78 87.25 421.28 87.25 371.7 86.38 371.19" style="fill:#37474f"></polygon><polygon points="86.38 371.19 87.25 371.7 87.89 371.32 87.02 370.82 86.38 371.19" style="fill:#455a64"></polygon><path d="M90.56,375.58,82.66,371c-.29-.17-.53,0-.53.3V385a1.2,1.2,0,0,0,.53.92l7.9,4.56c.29.16.53,0,.53-.31V376.49A1.16,1.16,0,0,0,90.56,375.58Z" style="fill:#1472F4"></path><path d="M90.56,375.58,82.66,371c-.29-.17-.53,0-.53.3V385a1.2,1.2,0,0,0,.53.92l7.9,4.56c.29.16.53,0,.53-.31V376.49A1.16,1.16,0,0,0,90.56,375.58Z" style="fill:#fff;opacity:0.2"></path><path d="M82.83,371.92l7.38,4.26a.47.47,0,0,1,.18.31v13L83,385.26a.47.47,0,0,1-.18-.31v-13m-.23-.41V385a.7.7,0,0,0,.3.51l7.73,4.47V376.49a.69.69,0,0,0-.29-.51l-7.73-4.47Z" style="fill:#fafafa"></path><path d="M89,377.25a.41.41,0,0,1,.17.21.66.66,0,0,1,.07.3v9a.29.29,0,0,1-.07.22.13.13,0,0,1-.17,0l-1.18-.68a.54.54,0,0,1-.17-.21.67.67,0,0,1-.07-.31v-3.39l-2-1.16v3.4a.28.28,0,0,1-.07.22.12.12,0,0,1-.17,0l-1.18-.68A.38.38,0,0,1,84,384a.68.68,0,0,1-.08-.31v-9a.29.29,0,0,1,.08-.22.13.13,0,0,1,.17,0l1.18.68a.54.54,0,0,1,.17.21.67.67,0,0,1,.07.31V379l2,1.15V376.8a.28.28,0,0,1,.07-.22.12.12,0,0,1,.17,0Z" style="fill:#fafafa"></path></g><g id="freepik--signal--inject-24"><polygon points="411.98 293.54 411.98 343.11 411.34 342.75 411.34 293.15 411.98 293.54" style="fill:#263238"></polygon><polygon points="412.85 293.02 412.85 342.61 411.98 343.11 411.98 293.54 412.85 293.02" style="fill:#37474f"></polygon><polygon points="412.85 293.02 411.98 293.54 411.34 293.15 412.21 292.65 412.85 293.02" style="fill:#455a64"></polygon><path d="M408.67,297.41l7.9-4.56c.29-.17.53,0,.53.31v13.62a1.18,1.18,0,0,1-.53.92l-7.9,4.56c-.29.17-.53,0-.53-.31V298.33A1.18,1.18,0,0,1,408.67,297.41Z" style="fill:#1472F4"></path><path d="M408.67,297.41l7.9-4.56c.29-.17.53,0,.53.31v13.62a1.18,1.18,0,0,1-.53.92l-7.9,4.56c-.29.17-.53,0-.53-.31V298.33A1.18,1.18,0,0,1,408.67,297.41Z" style="fill:#fff;opacity:0.2"></path><path d="M416.4,293.75v13a.52.52,0,0,1-.18.32l-7.38,4.26v-13A.52.52,0,0,1,409,298l7.38-4.26m.23-.4-7.73,4.46a.72.72,0,0,0-.3.52v13.43l7.73-4.46a.74.74,0,0,0,.3-.52V293.35Z" style="fill:#fafafa"></path><path d="M411.38,298.4a.14.14,0,0,1,.17,0,.29.29,0,0,1,.07.22V302l2-1.15v-3.34a.73.73,0,0,1,.07-.31.54.54,0,0,1,.17-.21l1.18-.68c.07,0,.13,0,.17,0a.28.28,0,0,1,.08.22v9a.65.65,0,0,1-.08.31.41.41,0,0,1-.17.21l-1.18.68a.14.14,0,0,1-.17,0,.28.28,0,0,1-.07-.22V303l-2,1.15v3.4a.66.66,0,0,1-.07.3.54.54,0,0,1-.17.21l-1.18.68a.12.12,0,0,1-.17,0,.29.29,0,0,1-.07-.22v-9a.66.66,0,0,1,.07-.3.46.46,0,0,1,.17-.21Z" style="fill:#fafafa"></path></g></g><g id="freepik--Streetlight--inject-24"><g id="freepik--street-lights--inject-24"><path d="M459.46,313a5,5,0,0,0-4.47,0,1.37,1.37,0,0,0,0,2.59,5,5,0,0,0,4.47,0,1.37,1.37,0,0,0,0-2.59Z" style="fill:#455a64"></path><path d="M460.39,314.29a1.58,1.58,0,0,0-.93-1.3,5,5,0,0,0-4.47,0,1.58,1.58,0,0,0-.93,1.3v.76a1.57,1.57,0,0,0,.93,1.29,5,5,0,0,0,4.47,0,1.57,1.57,0,0,0,.93-1.29Z" style="fill:#263238"></path><path d="M459.46,313a5,5,0,0,0-4.47,0,1.37,1.37,0,0,0,0,2.59,5,5,0,0,0,4.47,0,1.37,1.37,0,0,0,0-2.59Z" style="fill:#455a64"></path><path d="M454.88,289.42a1.16,1.16,0,0,1,.69-.95,3.64,3.64,0,0,1,3.31,0,1.16,1.16,0,0,1,.69.95v24.65a1.16,1.16,0,0,1-.69.95,3.64,3.64,0,0,1-3.31,0,1.16,1.16,0,0,1-.69-.95Z" style="fill:#37474f"></path><path d="M458.88,288.47a3.64,3.64,0,0,0-3.31,0,1,1,0,0,0,0,1.91,3.64,3.64,0,0,0,3.31,0,1,1,0,0,0,0-1.91Z" style="fill:#455a64"></path><path d="M457.61,242v47.45a.19.19,0,0,1-.11.16.57.57,0,0,1-.54,0,.19.19,0,0,1-.12-.16V242a.39.39,0,1,1,.77,0Z" style="fill:#263238"></path><path d="M457.57,254.07h-.69a8.62,8.62,0,0,1,4.39-7.34,9.5,9.5,0,0,1,9.66.1l-.35.61a8.8,8.8,0,0,0-9-.11A7.94,7.94,0,0,0,457.57,254.07Z" style="fill:#263238"></path><path d="M457.57,254.07h-.69a7.92,7.92,0,0,0-4.05-6.74,8.8,8.8,0,0,0-9,.11l-.34-.61a9.48,9.48,0,0,1,9.65-.1A8.62,8.62,0,0,1,457.57,254.07Z" style="fill:#263238"></path><path d="M470.5,249.52l1.73,1.2a5,5,0,0,0,4.95.31,1.56,1.56,0,0,0,.94-1.27c0-.16,0-.8,0-1,0-.52-.4-1-1.21-1.41l-2.72-1.25c-1.52-.7-3.52-.83-4.46-.29a1,1,0,0,0-.51.85v1A2.53,2.53,0,0,0,470.5,249.52Z" style="fill:#263238"></path><path d="M469.71,245.85c-.94.54-.58,1.76.79,2.72l1.73,1.2a5.07,5.07,0,0,0,4.95.31c1.36-.79,1.23-2-.29-2.69l-2.72-1.25C472.65,245.44,470.65,245.31,469.71,245.85Z" style="fill:#37474f"></path><path d="M469.6,246.68a.55.55,0,0,1,.32-.47,3,3,0,0,1,1.41-.28,6.73,6.73,0,0,1,2.66.58l2.72,1.25c.62.28,1,.66,1,1s-.24.66-.73.94a3.92,3.92,0,0,1-1.92.45,4.67,4.67,0,0,1-2.59-.74l-1.72-1.2A2.25,2.25,0,0,1,469.6,246.68Z" style="fill:#455a64"></path><path d="M443.34,249.52l-1.72,1.2a5.07,5.07,0,0,1-5,.31,1.55,1.55,0,0,1-.93-1.27c0-.16,0-.8,0-1,0-.52.4-1,1.22-1.41l2.71-1.25c1.53-.7,3.52-.83,4.46-.29a1,1,0,0,1,.52.85c0,.16,0,.8,0,1A2.53,2.53,0,0,1,443.34,249.52Z" style="fill:#263238"></path><path d="M444.13,245.85c.94.54.59,1.76-.79,2.72l-1.72,1.2a5.09,5.09,0,0,1-5,.31c-1.36-.79-1.23-2,.3-2.69l2.71-1.25C441.2,245.44,443.19,245.31,444.13,245.85Z" style="fill:#37474f"></path><path d="M444.24,246.68a.54.54,0,0,0-.31-.47,3,3,0,0,0-1.42-.28,6.77,6.77,0,0,0-2.66.58l-2.72,1.25c-.62.28-1,.66-1,1s.24.66.73.94a4,4,0,0,0,1.92.45,4.64,4.64,0,0,0,2.59-.74l1.72-1.2A2.25,2.25,0,0,0,444.24,246.68Z" style="fill:#455a64"></path></g></g><g id="freepik--hospital-building--inject-24"><g id="freepik--Building--inject-24"><polygon points="385.09 360.53 242.35 442.94 242.35 198.24 385.09 115.83 385.09 360.53" style="fill:#f5f5f5"></polygon><polygon points="242.35 442.94 203.42 420.46 203.42 175.76 242.35 198.24 242.35 442.94" style="fill:#e6e6e6"></polygon><polygon points="203.42 405.48 170.98 386.75 170.98 142.05 216.4 168.27 203.42 175.76 203.42 405.48" style="fill:#1472F4"></polygon><polygon points="203.42 405.48 170.98 386.75 170.98 142.05 216.4 168.27 203.42 175.76 203.42 405.48" style="opacity:0.2"></polygon><polygon points="170.98 386.75 170.98 358.27 203.42 377 203.42 405.48 170.98 386.75" style="fill:#1472F4"></polygon><polygon points="187.71 367.94 187.71 396.41 190.08 397.78 190.08 369.32 187.71 367.94"></polygon><polygon points="170.98 142.05 158 149.53 158 394.24 170.98 386.75 170.98 142.05" style="fill:#e0e0e0"></polygon><polygon points="170.98 142.05 158 149.53 158 394.24 170.98 386.75 170.98 142.05" style="mix-blend-mode:multiply;opacity:0.1"></polygon><polygon points="158 358.29 170.98 372.64 203.42 391.42 203.42 384.5 158 358.29" style="mix-blend-mode:multiply;opacity:0.30000000000000004"></polygon><polygon points="170.98 344.79 203.42 363.41 203.42 377 158 350.78 170.98 344.79" style="fill:#fafafa"></polygon><polygon points="158 350.78 158 358.29 203.42 384.5 203.42 377 158 350.78" style="fill:#e6e6e6"></polygon><polygon points="119.08 127.07 261.72 44.6 299.89 66.66 286.94 74.14 333.18 100.84 346.16 93.35 385.09 115.83 242.35 198.24 203.42 175.76 216.4 168.27 170.98 142.05 158 149.54 119.08 127.07" style="fill:#fafafa"></polygon><polygon points="261.72 52.2 287.78 67.13 274.75 74.65 333.18 108.34 346.16 100.85 372.11 115.83 242.35 190.39 216.4 175.76 229.37 168.27 169.86 135.21 158 142.05 132.05 127.07 261.72 52.2" style="fill:#ebebeb"></polygon><polygon points="158 394.24 119.07 371.77 119.07 127.07 158 149.54 158 394.24" style="fill:#e6e6e6"></polygon><polygon points="261.72 52.2 261.72 59.58 138.54 130.81 132.05 127.07 261.72 52.2" style="fill:#e0e0e0"></polygon><polygon points="346.16 100.85 346.16 108.34 333.18 115.83 333.18 108.34 346.16 100.85" style="fill:#f5f5f5"></polygon><polygon points="229.37 168.27 229.37 175.76 222.96 179.47 216.4 175.76 229.37 168.27" style="fill:#f5f5f5"></polygon><polygon points="287.78 67.13 261.72 52.2 261.72 59.58 281.18 70.94 287.78 67.13" style="fill:#e0e0e0"></polygon><polygon points="274.75 74.65 274.75 82.09 333.18 115.83 333.18 108.34 274.75 74.65" style="fill:#e0e0e0"></polygon><polygon points="372.11 115.83 346.16 100.85 346.16 108.34 365.62 119.57 372.11 115.83" style="fill:#e0e0e0"></polygon><polygon points="261.72 52.2 257.41 62.07 276.98 73.36 287.78 67.13 261.72 52.2" style="mix-blend-mode:multiply;opacity:0.1"></polygon><polygon points="274.75 74.65 270.44 84.52 329.4 118.17 333.18 115.83 333.18 108.34 274.75 74.65" style="mix-blend-mode:multiply;opacity:0.1"></polygon><polygon points="346.05 100.85 341.74 110.72 361.31 122 372.11 115.83 346.05 100.85" style="mix-blend-mode:multiply;opacity:0.1"></polygon><polygon points="181.39 329.58 186.39 332.47 186.39 165.83 181.39 162.94 181.39 329.58" style="fill:#1472F4"></polygon><polygon points="182.77 328.85 186.39 330.93 186.39 165.83 182.77 163.74 182.77 328.85" style="fill:#1472F4"></polygon><polygon points="182.77 328.85 186.39 330.93 186.39 165.83 182.77 163.74 182.77 328.85" style="fill:#fff;opacity:0.8"></polygon><polygon points="181.39 329.58 182.77 328.85 182.77 163.74 181.39 162.94 181.39 329.58" style="opacity:0.4"></polygon><polygon points="191.39 335.34 196.4 338.23 196.4 171.59 191.39 168.7 191.39 335.34" style="fill:#1472F4"></polygon><polygon points="192.78 334.61 196.4 336.69 196.4 171.59 192.78 169.5 192.78 334.61" style="fill:#1472F4"></polygon><polygon points="192.78 334.61 196.4 336.69 196.4 171.59 192.78 169.5 192.78 334.61" style="fill:#fff;opacity:0.8"></polygon><polygon points="191.39 335.34 192.78 334.61 192.78 169.5 191.39 168.7 191.39 335.34" style="opacity:0.4"></polygon><polygon points="203.42 363.41 183.34 351.88 170.98 358.27 203.42 377 203.42 363.41" style="mix-blend-mode:multiply;opacity:0.15"></polygon><polygon points="203.42 175.76 183.34 351.88 203.42 363.41 203.42 175.76" style="mix-blend-mode:multiply;opacity:0.15"></polygon><path d="M112.59,332.05s6.49,3.75,6.49,3.75v-7.45l-6.49-3.79Z" style="fill:#1472F4"></path><polygon points="112.59 324.56 119.08 320.82 119.08 328.35 112.59 324.56" style="fill:#1472F4"></polygon><polygon points="112.59 324.56 119.08 320.82 119.08 328.35 112.59 324.56" style="fill:#fff;opacity:0.6000000000000001"></polygon><g id="freepik--Window--inject-24"><polygon points="372.11 142.25 372.11 164.72 346.16 179.71 346.16 157.23 372.11 142.25" style="fill:#37474f"></polygon><polygon points="372.11 142.25 369 144.04 369 162.66 372.11 164.72 372.11 142.25" style="fill:#455a64"></polygon><polygon points="346.16 157.24 346.16 177.93 370.68 163.78 370.68 143.08 346.16 157.24" style="fill:#1472F4"></polygon><polygon points="346.16 157.24 346.16 177.93 370.68 163.78 370.68 143.08 346.16 157.24" style="fill:#fff;opacity:0.8"></polygon><polygon points="358.3 172.7 358.3 150.22 356.76 151.12 356.76 171.81 358.3 172.7" style="fill:#37474f"></polygon><polygon points="358.3 172.7 358.3 150.22 359.84 149.34 359.84 171.81 358.3 172.7" style="fill:#455a64"></polygon></g><polygon points="372.11 164.72 374.66 166.21 348.7 181.19 346.16 179.71 372.11 164.72" style="fill:#1472F4"></polygon><polygon points="372.11 164.72 374.66 166.21 348.7 181.19 346.16 179.71 372.11 164.72" style="fill:#fff;opacity:0.6000000000000001"></polygon><polyline points="348.7 184.49 346.16 183 346.16 179.71 348.7 181.19 348.7 184.49" style="fill:#1472F4"></polyline><polygon points="348.7 184.49 374.66 169.5 374.66 166.21 348.7 181.19 348.7 184.49" style="fill:#1472F4"></polygon><polygon points="348.7 184.49 374.66 169.5 374.66 166.21 348.7 181.19 348.7 184.49" style="fill:#fff;opacity:0.4"></polygon><g id="freepik--window--inject-24"><polygon points="326.65 168.47 326.65 190.95 300.69 205.93 300.69 183.45 326.65 168.47" style="fill:#37474f"></polygon><polygon points="326.65 168.47 323.54 170.27 323.54 188.88 326.65 190.95 326.65 168.47" style="fill:#455a64"></polygon><polygon points="300.69 183.46 300.69 204.15 325.21 190 325.21 169.3 300.69 183.46" style="fill:#1472F4"></polygon><polygon points="300.69 183.46 300.69 204.15 325.21 190 325.21 169.3 300.69 183.46" style="fill:#fff;opacity:0.8"></polygon><polygon points="312.83 198.92 312.83 176.44 311.29 177.34 311.29 198.03 312.83 198.92" style="fill:#37474f"></polygon><polygon points="312.83 198.92 312.83 176.44 314.37 175.56 314.37 198.03 312.83 198.92" style="fill:#455a64"></polygon></g><polygon points="326.65 190.95 329.19 192.43 303.24 207.41 300.69 205.93 326.65 190.95" style="fill:#1472F4"></polygon><polygon points="326.65 190.95 329.19 192.43 303.24 207.41 300.69 205.93 326.65 190.95" style="fill:#fff;opacity:0.6000000000000001"></polygon><polyline points="303.24 210.71 300.69 209.23 300.69 205.93 303.24 207.41 303.24 210.71" style="fill:#1472F4"></polyline><polygon points="303.24 210.71 329.19 195.72 329.19 192.43 303.24 207.41 303.24 210.71" style="fill:#1472F4"></polygon><polygon points="303.24 210.71 329.19 195.72 329.19 192.43 303.24 207.41 303.24 210.71" style="fill:#fff;opacity:0.4"></polygon><g id="freepik--window--inject-24"><polygon points="281.18 194.69 281.18 217.17 255.23 232.15 255.23 209.68 281.18 194.69" style="fill:#37474f"></polygon><polygon points="281.18 194.69 278.07 196.49 278.07 215.1 281.18 217.17 281.18 194.69" style="fill:#455a64"></polygon><polygon points="255.23 209.68 255.23 230.37 279.75 216.22 279.75 195.52 255.23 209.68" style="fill:#1472F4"></polygon><polygon points="255.23 209.68 255.23 230.37 279.75 216.22 279.75 195.52 255.23 209.68" style="fill:#fff;opacity:0.8"></polygon><polygon points="267.37 225.14 267.37 202.67 265.83 203.56 265.83 224.25 267.37 225.14" style="fill:#37474f"></polygon><polygon points="267.37 225.14 267.37 202.67 268.91 201.78 268.91 224.25 267.37 225.14" style="fill:#455a64"></polygon></g><polygon points="281.18 217.17 283.73 218.65 257.77 233.63 255.23 232.15 281.18 217.17" style="fill:#1472F4"></polygon><polygon points="281.18 217.17 283.73 218.65 257.77 233.63 255.23 232.15 281.18 217.17" style="fill:#fff;opacity:0.6000000000000001"></polygon><polyline points="257.77 236.93 255.23 235.45 255.23 232.15 257.77 233.63 257.77 236.93" style="fill:#1472F4"></polyline><polygon points="257.77 236.93 283.73 221.95 283.73 218.65 257.77 233.63 257.77 236.93" style="fill:#1472F4"></polygon><polygon points="257.77 236.93 283.73 221.95 283.73 218.65 257.77 233.63 257.77 236.93" style="fill:#fff;opacity:0.4"></polygon><g id="freepik--window--inject-24"><polygon points="372.11 187.2 372.11 209.68 346.16 224.66 346.16 202.18 372.11 187.2" style="fill:#37474f"></polygon><polygon points="372.11 187.2 369 189 369 207.61 372.11 209.68 372.11 187.2" style="fill:#455a64"></polygon><polygon points="346.16 202.19 346.16 222.88 370.68 208.73 370.68 188.03 346.16 202.19" style="fill:#1472F4"></polygon><polygon points="346.16 202.19 346.16 222.88 370.68 208.73 370.68 188.03 346.16 202.19" style="fill:#fff;opacity:0.8"></polygon><polygon points="358.3 217.65 358.3 195.18 356.76 196.07 356.76 216.76 358.3 217.65" style="fill:#37474f"></polygon><polygon points="358.3 217.65 358.3 195.18 359.84 194.29 359.84 216.76 358.3 217.65" style="fill:#455a64"></polygon></g><polygon points="372.11 209.68 374.66 211.16 348.7 226.14 346.16 224.66 372.11 209.68" style="fill:#1472F4"></polygon><polygon points="372.11 209.68 374.66 211.16 348.7 226.14 346.16 224.66 372.11 209.68" style="fill:#fff;opacity:0.6000000000000001"></polygon><polyline points="348.7 229.44 346.16 227.96 346.16 224.66 348.7 226.14 348.7 229.44" style="fill:#1472F4"></polyline><polygon points="348.7 229.44 374.66 214.45 374.66 211.16 348.7 226.14 348.7 229.44" style="fill:#1472F4"></polygon><polygon points="348.7 229.44 374.66 214.45 374.66 211.16 348.7 226.14 348.7 229.44" style="fill:#fff;opacity:0.4"></polygon><g id="freepik--window--inject-24"><polygon points="326.65 213.42 326.65 235.9 300.69 250.88 300.69 228.41 326.65 213.42" style="fill:#37474f"></polygon><polygon points="326.65 213.42 323.54 215.22 323.54 233.83 326.65 235.9 326.65 213.42" style="fill:#455a64"></polygon><polygon points="300.69 228.41 300.69 249.1 325.21 234.95 325.21 214.25 300.69 228.41" style="fill:#1472F4"></polygon><polygon points="300.69 228.41 300.69 249.1 325.21 234.95 325.21 214.25 300.69 228.41" style="fill:#fff;opacity:0.8"></polygon><polygon points="312.83 243.87 312.83 221.4 311.29 222.29 311.29 242.98 312.83 243.87" style="fill:#37474f"></polygon><polygon points="312.83 243.87 312.83 221.4 314.37 220.51 314.37 242.98 312.83 243.87" style="fill:#455a64"></polygon></g><polygon points="326.65 235.9 329.19 237.38 303.24 252.36 300.69 250.88 326.65 235.9" style="fill:#1472F4"></polygon><polygon points="326.65 235.9 329.19 237.38 303.24 252.36 300.69 250.88 326.65 235.9" style="fill:#fff;opacity:0.6000000000000001"></polygon><polyline points="303.24 255.66 300.69 254.18 300.69 250.88 303.24 252.36 303.24 255.66" style="fill:#1472F4"></polyline><polygon points="303.24 255.66 329.19 240.68 329.19 237.38 303.24 252.36 303.24 255.66" style="fill:#1472F4"></polygon><polygon points="303.24 255.66 329.19 240.68 329.19 237.38 303.24 252.36 303.24 255.66" style="fill:#fff;opacity:0.4"></polygon><g id="freepik--window--inject-24"><polygon points="281.18 239.64 281.18 262.12 255.23 277.1 255.23 254.63 281.18 239.64" style="fill:#37474f"></polygon><polygon points="281.18 239.64 278.07 241.44 278.07 260.05 281.18 262.12 281.18 239.64" style="fill:#455a64"></polygon><polygon points="255.23 254.63 255.23 275.32 279.75 261.17 279.75 240.47 255.23 254.63" style="fill:#1472F4"></polygon><polygon points="255.23 254.63 255.23 275.32 279.75 261.17 279.75 240.47 255.23 254.63" style="fill:#fff;opacity:0.8"></polygon><polygon points="267.37 270.09 267.37 247.62 265.83 248.51 265.83 269.2 267.37 270.09" style="fill:#37474f"></polygon><polygon points="267.37 270.09 267.37 247.62 268.91 246.73 268.91 269.2 267.37 270.09" style="fill:#455a64"></polygon></g><polygon points="281.18 262.12 283.73 263.6 257.77 278.58 255.23 277.1 281.18 262.12" style="fill:#1472F4"></polygon><polygon points="281.18 262.12 283.73 263.6 257.77 278.58 255.23 277.1 281.18 262.12" style="fill:#fff;opacity:0.6000000000000001"></polygon><polyline points="257.77 281.88 255.23 280.4 255.23 277.1 257.77 278.58 257.77 281.88" style="fill:#1472F4"></polyline><polygon points="257.77 281.88 283.73 266.9 283.73 263.6 257.77 278.58 257.77 281.88" style="fill:#1472F4"></polygon><polygon points="257.77 281.88 283.73 266.9 283.73 263.6 257.77 278.58 257.77 281.88" style="fill:#fff;opacity:0.4"></polygon><g id="freepik--window--inject-24"><polygon points="372.11 232.15 372.11 254.63 346.16 269.61 346.16 247.14 372.11 232.15" style="fill:#37474f"></polygon><polygon points="372.11 232.15 369 233.95 369 252.56 372.11 254.63 372.11 232.15" style="fill:#455a64"></polygon><polygon points="346.16 247.14 346.16 267.83 370.68 253.68 370.68 232.98 346.16 247.14" style="fill:#1472F4"></polygon><polygon points="346.16 247.14 346.16 267.83 370.68 253.68 370.68 232.98 346.16 247.14" style="fill:#fff;opacity:0.8"></polygon><polygon points="358.3 262.6 358.3 240.13 356.76 241.02 356.76 261.71 358.3 262.6" style="fill:#37474f"></polygon><polygon points="358.3 262.6 358.3 240.13 359.84 239.24 359.84 261.71 358.3 262.6" style="fill:#455a64"></polygon></g><polygon points="372.11 254.63 374.66 256.11 348.7 271.09 346.16 269.61 372.11 254.63" style="fill:#1472F4"></polygon><polygon points="372.11 254.63 374.66 256.11 348.7 271.09 346.16 269.61 372.11 254.63" style="fill:#fff;opacity:0.6000000000000001"></polygon><polyline points="348.7 274.39 346.16 272.91 346.16 269.61 348.7 271.09 348.7 274.39" style="fill:#1472F4"></polyline><polygon points="348.7 274.39 374.66 259.41 374.66 256.11 348.7 271.09 348.7 274.39" style="fill:#1472F4"></polygon><polygon points="348.7 274.39 374.66 259.41 374.66 256.11 348.7 271.09 348.7 274.39" style="fill:#fff;opacity:0.4"></polygon><g id="freepik--window--inject-24"><polygon points="326.65 258.37 326.65 280.85 300.69 295.83 300.69 273.36 326.65 258.37" style="fill:#37474f"></polygon><polygon points="326.65 258.37 323.54 260.17 323.54 278.78 326.65 280.85 326.65 258.37" style="fill:#455a64"></polygon><polygon points="300.69 273.36 300.69 294.05 325.21 279.9 325.21 259.2 300.69 273.36" style="fill:#1472F4"></polygon><polygon points="300.69 273.36 300.69 294.05 325.21 279.9 325.21 259.2 300.69 273.36" style="fill:#fff;opacity:0.8"></polygon><polygon points="312.83 288.82 312.83 266.35 311.29 267.24 311.29 287.94 312.83 288.82" style="fill:#37474f"></polygon><polygon points="312.83 288.82 312.83 266.35 314.37 265.46 314.37 287.94 312.83 288.82" style="fill:#455a64"></polygon></g><polygon points="326.65 280.85 329.19 282.33 303.24 297.31 300.69 295.83 326.65 280.85" style="fill:#1472F4"></polygon><polygon points="326.65 280.85 329.19 282.33 303.24 297.31 300.69 295.83 326.65 280.85" style="fill:#fff;opacity:0.6000000000000001"></polygon><polyline points="303.24 300.61 300.69 299.13 300.69 295.83 303.24 297.31 303.24 300.61" style="fill:#1472F4"></polyline><polygon points="303.24 300.61 329.19 285.63 329.19 282.33 303.24 297.31 303.24 300.61" style="fill:#1472F4"></polygon><polygon points="303.24 300.61 329.19 285.63 329.19 282.33 303.24 297.31 303.24 300.61" style="fill:#fff;opacity:0.4"></polygon><g id="freepik--window--inject-24"><polygon points="281.18 284.6 281.18 307.07 255.23 322.06 255.23 299.58 281.18 284.6" style="fill:#37474f"></polygon><polygon points="281.18 284.6 278.07 286.39 278.07 305 281.18 307.07 281.18 284.6" style="fill:#455a64"></polygon><polygon points="255.23 299.58 255.23 320.27 279.75 306.12 279.75 285.42 255.23 299.58" style="fill:#1472F4"></polygon><polygon points="255.23 299.58 255.23 320.27 279.75 306.12 279.75 285.42 255.23 299.58" style="fill:#fff;opacity:0.8"></polygon><polygon points="267.37 315.05 267.37 292.57 265.83 293.46 265.83 314.16 267.37 315.05" style="fill:#37474f"></polygon><polygon points="267.37 315.05 267.37 292.57 268.91 291.68 268.91 314.16 267.37 315.05" style="fill:#455a64"></polygon></g><polygon points="281.18 307.07 283.73 308.55 257.77 323.54 255.23 322.06 281.18 307.07" style="fill:#1472F4"></polygon><polygon points="281.18 307.07 283.73 308.55 257.77 323.54 255.23 322.06 281.18 307.07" style="fill:#fff;opacity:0.6000000000000001"></polygon><polyline points="257.77 326.83 255.23 325.35 255.23 322.06 257.77 323.54 257.77 326.83" style="fill:#1472F4"></polyline><polygon points="257.77 326.83 283.73 311.85 283.73 308.55 257.77 323.54 257.77 326.83" style="fill:#1472F4"></polygon><polygon points="257.77 326.83 283.73 311.85 283.73 308.55 257.77 323.54 257.77 326.83" style="fill:#fff;opacity:0.4"></polygon><g id="freepik--window--inject-24"><polygon points="372.11 277.11 372.11 299.58 346.16 314.56 346.16 292.09 372.11 277.11" style="fill:#37474f"></polygon><polygon points="372.11 277.11 369 278.9 369 297.51 372.11 299.58 372.11 277.11" style="fill:#455a64"></polygon><polygon points="346.16 292.09 346.16 312.78 370.68 298.63 370.68 277.93 346.16 292.09" style="fill:#1472F4"></polygon><polygon points="346.16 292.09 346.16 312.78 370.68 298.63 370.68 277.93 346.16 292.09" style="fill:#fff;opacity:0.8"></polygon><polygon points="358.3 307.55 358.3 285.08 356.76 285.97 356.76 306.67 358.3 307.55" style="fill:#37474f"></polygon><polygon points="358.3 307.55 358.3 285.08 359.84 284.19 359.84 306.67 358.3 307.55" style="fill:#455a64"></polygon></g><polygon points="372.11 299.58 374.66 301.06 348.7 316.05 346.16 314.56 372.11 299.58" style="fill:#1472F4"></polygon><polygon points="372.11 299.58 374.66 301.06 348.7 316.05 346.16 314.56 372.11 299.58" style="fill:#fff;opacity:0.6000000000000001"></polygon><polyline points="348.7 319.34 346.16 317.86 346.16 314.56 348.7 316.05 348.7 319.34" style="fill:#1472F4"></polyline><polygon points="348.7 319.34 374.66 304.36 374.66 301.06 348.7 316.05 348.7 319.34" style="fill:#1472F4"></polygon><polygon points="348.7 319.34 374.66 304.36 374.66 301.06 348.7 316.05 348.7 319.34" style="fill:#fff;opacity:0.4"></polygon><g id="freepik--window--inject-24"><polygon points="326.65 303.33 326.65 325.8 300.69 340.79 300.69 318.31 326.65 303.33" style="fill:#37474f"></polygon><polygon points="326.65 303.33 323.54 305.12 323.54 323.74 326.65 325.8 326.65 303.33" style="fill:#455a64"></polygon><polygon points="300.69 318.31 300.69 339 325.21 324.86 325.21 304.15 300.69 318.31" style="fill:#1472F4"></polygon><polygon points="300.69 318.31 300.69 339 325.21 324.86 325.21 304.15 300.69 318.31" style="fill:#fff;opacity:0.8"></polygon><polygon points="312.83 333.78 312.83 311.3 311.29 312.19 311.29 332.89 312.83 333.78" style="fill:#37474f"></polygon><polygon points="312.83 333.78 312.83 311.3 314.37 310.41 314.37 332.89 312.83 333.78" style="fill:#455a64"></polygon></g><polygon points="326.65 325.8 329.19 327.28 303.24 342.27 300.69 340.79 326.65 325.8" style="fill:#1472F4"></polygon><polygon points="326.65 325.8 329.19 327.28 303.24 342.27 300.69 340.79 326.65 325.8" style="fill:#fff;opacity:0.6000000000000001"></polygon><polyline points="303.24 345.56 300.69 344.08 300.69 340.79 303.24 342.27 303.24 345.56" style="fill:#1472F4"></polyline><polygon points="303.24 345.56 329.19 330.58 329.19 327.28 303.24 342.27 303.24 345.56" style="fill:#1472F4"></polygon><polygon points="303.24 345.56 329.19 330.58 329.19 327.28 303.24 342.27 303.24 345.56" style="fill:#fff;opacity:0.4"></polygon><g id="freepik--window--inject-24"><polygon points="281.18 329.55 281.18 352.02 255.23 367.01 255.23 344.53 281.18 329.55" style="fill:#37474f"></polygon><polygon points="281.18 329.55 278.07 331.34 278.07 349.96 281.18 352.02 281.18 329.55" style="fill:#455a64"></polygon><polygon points="255.23 344.54 255.23 365.23 279.75 351.08 279.75 330.38 255.23 344.54" style="fill:#1472F4"></polygon><polygon points="255.23 344.54 255.23 365.23 279.75 351.08 279.75 330.38 255.23 344.54" style="fill:#fff;opacity:0.8"></polygon><polygon points="267.37 360 267.37 337.52 265.83 338.41 265.83 359.11 267.37 360" style="fill:#37474f"></polygon><polygon points="267.37 360 267.37 337.52 268.91 336.64 268.91 359.11 267.37 360" style="fill:#455a64"></polygon></g><polygon points="281.18 352.02 283.73 353.5 257.77 368.49 255.23 367.01 281.18 352.02" style="fill:#1472F4"></polygon><polygon points="281.18 352.02 283.73 353.5 257.77 368.49 255.23 367.01 281.18 352.02" style="fill:#fff;opacity:0.6000000000000001"></polygon><polyline points="257.77 371.79 255.23 370.3 255.23 367.01 257.77 368.49 257.77 371.79" style="fill:#1472F4"></polyline><polygon points="257.77 371.79 283.73 356.8 283.73 353.5 257.77 368.49 257.77 371.79" style="fill:#1472F4"></polygon><polygon points="257.77 371.79 283.73 356.8 283.73 353.5 257.77 368.49 257.77 371.79" style="fill:#fff;opacity:0.4"></polygon><polygon points="217.67 355.1 217.67 366.65 227.67 372.42 227.67 360.87 217.67 355.1" style="fill:#455a64"></polygon><polygon points="217.67 337.77 217.67 349.32 227.67 355.1 227.67 343.55 217.67 337.77" style="fill:#455a64"></polygon><polygon points="217.67 310.16 217.67 321.71 227.67 327.49 227.67 315.94 217.67 310.16" style="fill:#455a64"></polygon><polygon points="217.67 292.83 217.67 304.39 227.67 310.16 227.67 298.61 217.67 292.83" style="fill:#455a64"></polygon><polygon points="217.67 265.2 217.67 276.75 227.67 282.52 227.67 270.97 217.67 265.2" style="fill:#455a64"></polygon><polygon points="217.67 247.87 217.67 259.42 227.67 265.2 227.67 253.65 217.67 247.87" style="fill:#455a64"></polygon><polygon points="217.67 220.24 217.67 231.8 227.67 237.57 227.67 226.02 217.67 220.24" style="fill:#455a64"></polygon><polygon points="217.67 202.92 217.67 214.47 227.67 220.24 227.67 208.69 217.67 202.92" style="fill:#455a64"></polygon><polygon points="220.13 257.79 227.67 262.14 227.67 253.65 220.13 249.29 220.13 257.79" style="fill:#1472F4"></polygon><polygon points="220.13 275.11 227.67 279.47 227.67 270.97 220.13 266.62 220.13 275.11" style="fill:#1472F4"></polygon><polygon points="220.13 230.16 227.67 234.51 227.67 226.02 220.13 221.67 220.13 230.16" style="fill:#1472F4"></polygon><polygon points="220.13 212.83 227.67 217.19 227.67 208.69 220.13 204.34 220.13 212.83" style="fill:#1472F4"></polygon><polygon points="220.13 320.08 227.67 324.43 227.67 315.94 220.13 311.58 220.13 320.08" style="fill:#1472F4"></polygon><polygon points="220.13 302.75 227.67 307.1 227.67 298.61 220.13 294.26 220.13 302.75" style="fill:#1472F4"></polygon><polygon points="220.13 365.01 227.67 369.37 227.67 360.87 220.13 356.52 220.13 365.01" style="fill:#1472F4"></polygon><polygon points="220.13 347.69 227.67 352.04 227.67 343.55 220.13 339.19 220.13 347.69" style="fill:#1472F4"></polygon><polygon points="217.67 202.92 220.13 204.34 220.13 212.83 217.67 214.47 217.67 202.92" style="fill:#37474f"></polygon><polygon points="217.67 220.24 220.13 221.67 220.13 230.16 217.67 231.8 217.67 220.24" style="fill:#37474f"></polygon><polygon points="217.67 247.87 220.13 249.29 220.13 257.79 217.67 259.42 217.67 247.87" style="fill:#37474f"></polygon><polygon points="217.67 265.2 220.13 266.62 220.13 275.11 217.67 276.75 217.67 265.2" style="fill:#37474f"></polygon><polygon points="217.67 292.83 220.13 294.26 220.13 302.75 217.67 304.39 217.67 292.83" style="fill:#37474f"></polygon><polygon points="217.67 310.16 220.13 311.58 220.13 320.08 217.67 321.71 217.67 310.16" style="fill:#37474f"></polygon><polygon points="217.67 337.77 220.13 339.19 220.13 347.69 217.67 349.32 217.67 337.77" style="fill:#37474f"></polygon><polygon points="217.67 355.1 220.13 356.52 220.13 365.01 217.67 366.65 217.67 355.1" style="fill:#37474f"></polygon><polygon points="133.32 306.4 133.32 317.95 143.33 323.73 143.33 312.18 133.32 306.4" style="fill:#455a64"></polygon><polygon points="133.32 289.07 133.32 300.62 143.33 306.4 143.33 294.85 133.32 289.07" style="fill:#455a64"></polygon><polygon points="133.32 261.46 133.32 273.01 143.33 278.79 143.33 267.24 133.32 261.46" style="fill:#455a64"></polygon><polygon points="133.32 244.14 133.32 255.69 143.33 261.46 143.33 249.91 133.32 244.14" style="fill:#455a64"></polygon><polygon points="133.32 216.5 133.32 228.05 143.33 233.83 143.33 222.28 133.32 216.5" style="fill:#455a64"></polygon><polygon points="133.32 199.17 133.32 210.72 143.33 216.5 143.33 204.95 133.32 199.17" style="fill:#455a64"></polygon><polygon points="133.32 171.55 133.32 183.1 143.33 188.87 143.33 177.32 133.32 171.55" style="fill:#455a64"></polygon><polygon points="133.32 154.22 133.32 165.77 143.33 171.55 143.33 160 133.32 154.22" style="fill:#455a64"></polygon><polygon points="135.79 209.09 143.33 213.44 143.33 204.95 135.79 200.59 135.79 209.09" style="fill:#1472F4"></polygon><polygon points="135.79 226.42 143.33 230.77 143.33 222.28 135.79 217.92 135.79 226.42" style="fill:#1472F4"></polygon><polygon points="135.79 181.46 143.33 185.81 143.33 177.32 135.79 172.97 135.79 181.46" style="fill:#1472F4"></polygon><polygon points="135.79 164.13 143.33 168.49 143.33 160 135.79 155.64 135.79 164.13" style="fill:#1472F4"></polygon><polygon points="135.79 271.38 143.33 275.73 143.33 267.24 135.79 262.88 135.79 271.38" style="fill:#1472F4"></polygon><polygon points="135.79 254.05 143.33 258.4 143.33 249.91 135.79 245.56 135.79 254.05" style="fill:#1472F4"></polygon><polygon points="135.79 316.31 143.33 320.67 143.33 312.18 135.79 307.82 135.79 316.31" style="fill:#1472F4"></polygon><polygon points="135.79 298.99 143.33 303.34 143.33 294.85 135.79 290.49 135.79 298.99" style="fill:#1472F4"></polygon><polygon points="133.32 154.22 135.79 155.64 135.79 164.13 133.32 165.77 133.32 154.22" style="fill:#37474f"></polygon><polygon points="133.32 171.55 135.79 172.97 135.79 181.46 133.32 183.1 133.32 171.55" style="fill:#37474f"></polygon><polygon points="133.32 199.17 135.79 200.59 135.79 209.09 133.32 210.72 133.32 199.17" style="fill:#37474f"></polygon><polygon points="133.32 216.5 135.79 217.92 135.79 226.42 133.32 228.05 133.32 216.5" style="fill:#37474f"></polygon><polygon points="133.32 244.14 135.79 245.56 135.79 254.05 133.32 255.69 133.32 244.14" style="fill:#37474f"></polygon><polygon points="133.32 261.46 135.79 262.88 135.79 271.38 133.32 273.01 133.32 261.46" style="fill:#37474f"></polygon><polygon points="133.32 289.07 135.79 290.49 135.79 298.99 133.32 300.62 133.32 289.07" style="fill:#37474f"></polygon><polygon points="133.32 306.4 135.79 307.82 135.79 316.31 133.32 317.95 133.32 306.4" style="fill:#37474f"></polygon><polygon points="385.09 331.6 248.81 410.7 242.35 406.97 242.35 421.95 385.09 341.19 385.09 331.6" style="mix-blend-mode:multiply;opacity:0.15"></polygon><path d="M358,340.22v30.92l1.17-.68V339.55ZM343.81,379.3l1.17-.68V347.71l-1.17.68Zm-14.15,8.16,1.17-.67V355.87l-1.17.68Zm-33.05,19.1,1.17-.67V375l-1.18.68Zm-14.16,8.17,1.18-.68V383.14l-1.18.68Zm-14.15,8.16,1.18-.68V391.3l-1.18.68Z" style="fill:#455a64"></path><polygon points="268.3 407.27 269.48 406.6 269.48 398.7 268.3 399.38 268.3 407.27" style="fill:#37474f"></polygon><polygon points="297.78 382.27 296.61 382.96 296.61 391.25 297.78 390.59 297.78 382.27" style="fill:#37474f"></polygon><polygon points="283.63 390.49 282.45 391.17 282.45 399.26 283.63 398.6 283.63 390.49" style="fill:#37474f"></polygon><polygon points="359.13 346.66 357.96 347.34 357.96 356.54 359.13 355.87 359.13 346.66" style="fill:#37474f"></polygon><polygon points="344.98 354.88 343.81 355.56 343.81 364.55 344.98 363.88 344.98 354.88" style="fill:#37474f"></polygon><polygon points="330.83 363.09 329.66 363.77 329.66 372.55 330.83 371.89 330.83 363.09" style="fill:#37474f"></polygon><polygon points="385.09 360.53 385.09 355.47 242.35 437.88 242.35 442.94 385.09 360.53" style="fill:#455a64"></polygon><polygon points="372.11 332.05 359.13 339.55 359.13 370.46 372.11 362.97 372.11 332.05" style="fill:#1472F4"></polygon><polygon points="357.96 340.22 344.98 347.72 344.98 378.63 357.96 371.14 357.96 340.22" style="fill:#1472F4"></polygon><polygon points="343.81 348.4 330.83 355.89 330.83 386.8 343.81 379.31 343.81 348.4" style="fill:#1472F4"></polygon><polygon points="329.65 356.57 316.68 364.06 316.68 394.97 329.65 387.48 329.65 356.57" style="fill:#1472F4"></polygon><polygon points="310.76 367.48 297.78 374.97 297.78 405.88 310.76 398.39 310.76 367.48" style="fill:#1472F4"></polygon><polygon points="296.61 375.65 283.63 383.14 283.63 414.06 296.61 406.56 296.61 375.65" style="fill:#1472F4"></polygon><polygon points="282.45 383.82 269.48 391.31 269.48 422.23 282.45 414.74 282.45 383.82" style="fill:#1472F4"></polygon><polygon points="268.3 391.99 255.32 399.49 255.32 430.4 268.3 422.91 268.3 391.99" style="fill:#1472F4"></polygon><path d="M372.11,332.05l-13,7.5v30.91l13-7.49ZM345,347.72v30.91l13-7.49V340.22Zm-14.15,8.17V386.8l13-7.49V348.4Zm-14.15,8.17V395l13-7.49V356.57ZM297.78,375v30.91l13-7.49V367.48Zm-14.15,8.17v30.92l13-7.5V375.65Zm-14.15,8.17v30.92l13-7.5V383.82Zm-14.16,8.18V430.4l13-7.49V392Z" style="fill:#fff;opacity:0.8"></path><path d="M270.64,390.64l-1.16,2.43v7.05L275.3,388Zm11.81,24.09v-3.21L280.33,416Zm0-28.21-13,27.1v8.61l1.81-1.05,11.16-23.31Zm1.79-3.73-.61,1.27v11.35l8.12-17Zm-20.46,42.72,4.52-2.6v-6.83Zm4.52-30-13,27.1v7.05l13-27.1Zm32.48-22.29-3,6.26v7.06l7.66-16Zm33.1-19.11-3.05,6.37v7.05l7.71-16.12Zm13.6-7.86-2.5,5.22v11.35l10-20.9Zm-30.8,18.54v7.13l2.54-5.31ZM364,336.72l-4.89,10.21V354l9.55-20Zm-20.21,17.22-13,27.11v5.75l3.7-2.14,9.28-19.37Zm0,25.37V379l-.24.49ZM358,349.39,345,376.5v2.13l3.25-1.88L358,356.44Zm0,21.75V370l-.79,1.64ZM296.6,382l-13,27.11v5l1.36-.79L296.61,389Zm75.51-41.57-13,27.1v3l5.55-3.2,7.43-15.53Zm-75.5,66.17v-4l-2.68,5.59Zm1.17-6.49v5.81l3.66-2.11,9.32-19.46V373ZM329.65,363l-13,27.11V395l1.41-.81L329.65,370Zm0,24.53v-4L327,389Z" style="fill:#fff;opacity:0.30000000000000004"></path><path d="M242.35,407l6.46,3.73v-7.43l-6.46-3.79Z" style="fill:#1472F4"></path><polygon points="248.81 410.7 391.16 328.07 391.16 321.05 248.81 403.27 248.81 410.7" style="fill:#1472F4"></polygon><polygon points="248.81 410.7 391.16 328.07 391.16 321.05 248.81 403.27 248.81 410.7" style="fill:#fff;opacity:0.4"></polygon><polygon points="242.35 399.48 248.81 403.27 391.16 321.05 385.09 317.04 242.35 399.48" style="fill:#1472F4"></polygon><polygon points="242.35 399.48 248.81 403.27 391.16 321.05 385.09 317.04 242.35 399.48" style="fill:#fff;opacity:0.6000000000000001"></polygon><g style="mix-blend-mode:multiply;opacity:0.35000000000000003"><polygon points="296.61 382.96 283.63 390.49 283.63 398.6 296.61 391.25 296.61 382.96" style="fill:#1472F4;opacity:0.8"></polygon><polygon points="310.76 374.74 297.78 382.27 297.78 390.59 310.76 383.25 310.76 374.74" style="fill:#1472F4;opacity:0.8"></polygon><polygon points="255.32 414.61 268.3 407.27 268.3 399.38 255.32 406.92 255.32 414.61" style="fill:#1472F4;opacity:0.8"></polygon><polygon points="282.45 391.17 269.48 398.7 269.48 406.6 282.45 399.26 282.45 391.17" style="fill:#1472F4;opacity:0.8"></polygon><polygon points="329.65 363.77 316.68 371.31 316.68 379.9 329.65 372.55 329.65 363.77" style="fill:#1472F4;opacity:0.8"></polygon><polygon points="357.96 347.34 344.98 354.88 344.98 363.88 357.96 356.54 357.96 347.34" style="fill:#1472F4;opacity:0.8"></polygon><polygon points="372.11 339.13 359.13 346.66 359.13 355.87 372.11 348.53 372.11 339.13" style="fill:#1472F4;opacity:0.8"></polygon><polygon points="343.81 355.56 330.83 363.09 330.83 371.89 343.81 364.55 343.81 355.56" style="fill:#1472F4;opacity:0.8"></polygon></g><g id="freepik--Sign--inject-24"><g id="freepik--Box--inject-24"><path d="M342.42,328.57,279,365.18a3.43,3.43,0,0,0-1.55,2.68v11.76a3.39,3.39,0,0,0,1.56,2.66l.11.07a3.48,3.48,0,0,0,3.1,0l63.47-36.61a3.45,3.45,0,0,0,1.54-2.68V331.28a3.38,3.38,0,0,0-1.55-2.66l-.12-.07A3.48,3.48,0,0,0,342.42,328.57Z" style="fill:#f0f0f0"></path><path d="M282.18,382.33a3.52,3.52,0,0,1-3.1,0l-.11-.07a3.37,3.37,0,0,1-1.56-2.66V367.86a3.2,3.2,0,0,1,.49-1.58l3.19,1.88a3.13,3.13,0,0,0-.45,1.52v11.76C280.64,382.34,281.27,382.86,282.18,382.33Z" style="fill:#e0e0e0"></path><path d="M345.65,330.39,282.18,367a3.41,3.41,0,0,0-1.54,2.67v11.76c0,1,.69,1.38,1.54.89l63.47-36.61a3.45,3.45,0,0,0,1.54-2.68V331.28C347.19,330.3,346.5,329.9,345.65,330.39Z" style="fill:#fafafa"></path><path d="M346.34,330.62c.36,0,.41.41.41.66V343a3,3,0,0,1-1.32,2.3L282,382a1,1,0,0,1-.47.16c-.36,0-.42-.42-.42-.67V369.68a3,3,0,0,1,1.33-2.3l63.46-36.61a1,1,0,0,1,.48-.15m0-.44a1.4,1.4,0,0,0-.69.21L282.18,367a3.41,3.41,0,0,0-1.54,2.67v11.76c0,.7.35,1.1.85,1.1a1.33,1.33,0,0,0,.69-.21l63.47-36.61a3.45,3.45,0,0,0,1.54-2.68V331.28c0-.7-.35-1.1-.85-1.1Z" style="fill:#f0f0f0"></path></g><path d="M304.17,364.43,301.39,366v-1.32l2.52-1.46a.46.46,0,0,0,.17-.19.68.68,0,0,0,.07-.26v-1.25a.22.22,0,0,0-.07-.18.14.14,0,0,0-.17,0l-2.52,1.46v-1.27L304.1,360a.46.46,0,0,0,.17-.19.54.54,0,0,0,.07-.27V358.3a.22.22,0,0,0-.07-.19.15.15,0,0,0-.17,0L300,360.49a.53.53,0,0,0-.17.19.68.68,0,0,0-.07.27v7.6a.25.25,0,0,0,.07.18.15.15,0,0,0,.17,0l4.18-2.42a.4.4,0,0,0,.17-.19.54.54,0,0,0,.07-.26v-1.25c0-.09,0-.15-.07-.18A.13.13,0,0,0,304.17,364.43Zm5.41-4.43a4.28,4.28,0,0,0,.78-1.34,4.67,4.67,0,0,0,.27-1.62,2.86,2.86,0,0,0-.17-1.1,1,1,0,0,0-.49-.55,1.2,1.2,0,0,0-.78,0,3.48,3.48,0,0,0-1,.43l-2.4,1.38a.44.44,0,0,0-.16.19.54.54,0,0,0-.07.27v7.6c0,.09,0,.15.07.18a.12.12,0,0,0,.16,0l1.16-.67a.4.4,0,0,0,.17-.19.68.68,0,0,0,.07-.26v-2.52l.81-.47,1,1.95a.57.57,0,0,0,.12.15c.05,0,.13,0,.25,0l1.2-.7a.34.34,0,0,0,.14-.15.46.46,0,0,0,.06-.22.23.23,0,0,0,0-.11Zm-.82-1.2a2.15,2.15,0,0,1-.61.55l-1,.57v-1.74l1-.57a.89.89,0,0,1,.61-.17q.24,0,.24.54A1.33,1.33,0,0,1,308.76,358.8Zm-17.82,13.27-2.79,1.61v-1.32l2.53-1.46a.46.46,0,0,0,.17-.19.54.54,0,0,0,.07-.26V369.2c0-.09,0-.15-.07-.18a.14.14,0,0,0-.17,0l-2.53,1.46v-1.27l2.72-1.57a.46.46,0,0,0,.17-.19.54.54,0,0,0,.07-.27v-1.25a.21.21,0,0,0-.07-.18.17.17,0,0,0-.17,0l-4.11,2.38a.53.53,0,0,0-.17.19.68.68,0,0,0-.07.26v7.61a.25.25,0,0,0,.07.18.17.17,0,0,0,.17,0l4.18-2.42a.4.4,0,0,0,.17-.19.54.54,0,0,0,.07-.26v-1.25a.22.22,0,0,0-.07-.19A.15.15,0,0,0,290.94,372.07Zm7.25-10.54-1,.59a.66.66,0,0,0-.27.28,1.35,1.35,0,0,0-.11.26l-1.43,4.08-1.43-2.43a.66.66,0,0,0-.12-.12c-.06-.06-.14-.05-.26,0l-1,.59a.44.44,0,0,0-.16.19.54.54,0,0,0-.07.27v7.6a.2.2,0,0,0,.07.18.12.12,0,0,0,.16,0l1.16-.67a.53.53,0,0,0,.17-.19.68.68,0,0,0,.07-.26V368l.83,1.46a.49.49,0,0,0,.12.13c.05,0,.12,0,.2,0l.57-.33a.5.5,0,0,0,.21-.22,2,2,0,0,0,.12-.26l.83-2.42v3.9a.21.21,0,0,0,.07.18.14.14,0,0,0,.16,0l1.16-.66a.46.46,0,0,0,.17-.19.68.68,0,0,0,.07-.27v-7.6a.22.22,0,0,0-.07-.18A.13.13,0,0,0,298.19,361.53Zm24.33-7.69-2.79,1.61v-1.32l2.53-1.46a.53.53,0,0,0,.17-.19.68.68,0,0,0,.07-.26V351a.22.22,0,0,0-.07-.18.14.14,0,0,0-.17,0l-2.53,1.45V351l2.72-1.57a.4.4,0,0,0,.17-.19.51.51,0,0,0,.07-.26V347.7a.2.2,0,0,0-.07-.18.13.13,0,0,0-.17,0l-4.11,2.38a.4.4,0,0,0-.17.19.54.54,0,0,0-.07.26V358a.22.22,0,0,0,.07.19.15.15,0,0,0,.17,0l4.18-2.41a.46.46,0,0,0,.17-.19.54.54,0,0,0,.07-.27V354a.22.22,0,0,0-.07-.19A.15.15,0,0,0,322.52,353.84Zm9.26-8.57a3.72,3.72,0,0,1,.08-.57,2.76,2.76,0,0,1,.19-.55,2.69,2.69,0,0,1,.34-.49,2,2,0,0,1,.5-.4,1.21,1.21,0,0,1,.5-.19.64.64,0,0,1,.32,0,.58.58,0,0,1,.19.19c0,.09.07.17.1.25a.53.53,0,0,0,.09.21s.11,0,.21,0l1.15-.67a.34.34,0,0,0,.14-.15.49.49,0,0,0,.06-.22,2.27,2.27,0,0,0-.22-1,1.27,1.27,0,0,0-.59-.58A1.52,1.52,0,0,0,334,341a2.82,2.82,0,0,0-1.08.4,4.71,4.71,0,0,0-1.14.91,6.21,6.21,0,0,0-.85,1.18,6.4,6.4,0,0,0-.54,1.33,5.41,5.41,0,0,0-.21,1.35c0,.34,0,.7,0,1.07s0,.71,0,1a3.59,3.59,0,0,0,.21,1.11,1.41,1.41,0,0,0,.55.7,1.32,1.32,0,0,0,.85.2,2.71,2.71,0,0,0,1.13-.4A4.82,4.82,0,0,0,334,349a6.13,6.13,0,0,0,.87-1.12,6.53,6.53,0,0,0,.59-1.26,4.4,4.4,0,0,0,.22-1.26c0-.07,0-.12-.06-.14a.12.12,0,0,0-.14,0l-1.15.66a.58.58,0,0,0-.21.2,1.9,1.9,0,0,0-.09.32c0,.11-.06.23-.1.36a2.17,2.17,0,0,1-.19.41,2.92,2.92,0,0,1-.32.42,2.61,2.61,0,0,1-.5.38,1.09,1.09,0,0,1-.5.17.49.49,0,0,1-.34-.1.72.72,0,0,1-.19-.32,2.29,2.29,0,0,1-.08-.48c0-.1,0-.24,0-.42s0-.37,0-.56,0-.38,0-.56S331.77,345.37,331.78,345.27Zm-3-1.41-1.16.67a.46.46,0,0,0-.17.19.63.63,0,0,0-.07.26v4l-2-2.86a.44.44,0,0,0-.12-.1.25.25,0,0,0-.24,0l-.92.53a.44.44,0,0,0-.16.19.56.56,0,0,0-.08.26v7.61a.22.22,0,0,0,.08.18.15.15,0,0,0,.16,0l1.16-.67a.53.53,0,0,0,.17-.19.68.68,0,0,0,.07-.27v-4l2,2.85a.32.32,0,0,0,.12.1c.06,0,.14,0,.24,0l.92-.53a.64.64,0,0,0,.17-.19.72.72,0,0,0,.07-.27V344a.22.22,0,0,0-.07-.18A.14.14,0,0,0,328.8,343.86Zm-12,10.23-2.14,1.24a.46.46,0,0,0-.17.19.68.68,0,0,0-.07.26V357a.22.22,0,0,0,.07.18.14.14,0,0,0,.17,0l.74-.43a2.22,2.22,0,0,1-.09.65,1.87,1.87,0,0,1-.23.54,2.11,2.11,0,0,1-.36.43,2.67,2.67,0,0,1-.43.32,1.06,1.06,0,0,1-.5.17.44.44,0,0,1-.33-.1.77.77,0,0,1-.2-.33,2.09,2.09,0,0,1-.08-.47c0-.09,0-.23,0-.41s0-.37,0-.56,0-.38,0-.57,0-.32,0-.43a5.62,5.62,0,0,1,.09-.57,2.24,2.24,0,0,1,.19-.55,1.92,1.92,0,0,1,.33-.49,2,2,0,0,1,.5-.4,1,1,0,0,1,.64-.2.67.67,0,0,1,.34.2l.15.13c.05,0,.12,0,.2,0l1.18-.67a.45.45,0,0,0,.14-.16.37.37,0,0,0,.05-.22,1.47,1.47,0,0,0-.21-.71,1.33,1.33,0,0,0-.54-.51,1.59,1.59,0,0,0-.84-.12,2.73,2.73,0,0,0-1.11.4,5,5,0,0,0-1.14.91,5.8,5.8,0,0,0-.85,1.18,6.4,6.4,0,0,0-.54,1.33,5.41,5.41,0,0,0-.21,1.35c0,.35,0,.7,0,1.07s0,.71,0,1a3.26,3.26,0,0,0,.21,1.1,1.41,1.41,0,0,0,.55.7,1.25,1.25,0,0,0,.85.2,2.57,2.57,0,0,0,1.13-.4,4.82,4.82,0,0,0,1.08-.85,5.87,5.87,0,0,0,1.45-2.5,4.9,4.9,0,0,0,.22-1.47v-1.51a.25.25,0,0,0-.07-.18A.15.15,0,0,0,316.78,354.09Zm24.91-17.6a.12.12,0,0,0-.14,0l-1.21.69a.67.67,0,0,0-.26.27,1.78,1.78,0,0,0-.11.24l-1.12,3.54L337.74,339a.28.28,0,0,0-.11-.11c-.06-.05-.14,0-.26,0l-1.21.7a.41.41,0,0,0-.14.15.49.49,0,0,0-.06.22.28.28,0,0,0,0,.13l2,3.83v2.5a.22.22,0,0,0,.07.19.15.15,0,0,0,.17,0l1.15-.66a.49.49,0,0,0,.17-.2.51.51,0,0,0,.07-.26V343l2-6.17a.67.67,0,0,0,0-.18A.17.17,0,0,0,341.69,336.49Z" style="fill:#1472F4"></path></g><g id="freepik--sign--inject-24"><g id="freepik--box--inject-24"><path d="M164.19,333.83l37,21.34a3.4,3.4,0,0,1,1.55,2.68V369.6a3.37,3.37,0,0,1-1.55,2.66l-.12.07a3.45,3.45,0,0,1-3.1,0L161,351a3.45,3.45,0,0,1-1.54-2.68V336.54a3.38,3.38,0,0,1,1.55-2.66l.12-.07A3.48,3.48,0,0,1,164.19,333.83Z" style="fill:#f0f0f0"></path><path d="M198,372.32a3.55,3.55,0,0,0,3.1,0l.12-.07a3.37,3.37,0,0,0,1.55-2.66V357.85a3.17,3.17,0,0,0-.49-1.58l-3.19,1.88a3.13,3.13,0,0,1,.45,1.52v11.75C199.5,372.32,198.87,372.84,198,372.32Z" style="fill:#e0e0e0"></path><path d="M161,335.65,198,357a3.41,3.41,0,0,1,1.54,2.68v11.75c0,1-.69,1.39-1.54.9L161,351a3.45,3.45,0,0,1-1.54-2.68V336.54C159.42,335.56,160.11,335.16,161,335.65Z" style="fill:#fafafa"></path><path d="M160.27,335.88a1,1,0,0,1,.47.15l37,21.34a3,3,0,0,1,1.33,2.3v11.75c0,.25-.06.67-.42.67a1,1,0,0,1-.47-.15l-37-21.34a3,3,0,0,1-1.33-2.3V336.54c0-.25.06-.66.42-.66m0-.44c-.51,0-.85.4-.85,1.1V348.3A3.45,3.45,0,0,0,161,351l37,21.34a1.43,1.43,0,0,0,.69.21c.51,0,.85-.41.85-1.11V359.67A3.41,3.41,0,0,0,198,357l-37-21.34a1.43,1.43,0,0,0-.69-.21Z" style="fill:#f0f0f0"></path></g><path d="M165.69,342.13a.4.4,0,0,1,.13.17.53.53,0,0,1,.06.24v7.08a.21.21,0,0,1-.06.17.09.09,0,0,1-.13,0l-.94-.53a.4.4,0,0,1-.13-.17.53.53,0,0,1-.06-.24v-2.69l-1.58-.91V348a.21.21,0,0,1-.06.17.09.09,0,0,1-.13,0l-.93-.54a.32.32,0,0,1-.14-.16.49.49,0,0,1-.05-.24v-7.08a.24.24,0,0,1,.05-.18.12.12,0,0,1,.14,0l.93.54a.34.34,0,0,1,.13.17.53.53,0,0,1,.06.24v2.64l1.58.91v-2.64a.21.21,0,0,1,.06-.17.09.09,0,0,1,.13,0Z" style="fill:#1472F4"></path><path d="M166.78,345.63a3.66,3.66,0,0,1,.18-1.06,1.49,1.49,0,0,1,.43-.69,1,1,0,0,1,.68-.24,1.93,1.93,0,0,1,.93.3,3.61,3.61,0,0,1,.93.77,5.15,5.15,0,0,1,.69,1,6,6,0,0,1,.6,2.45c0,.32,0,.65,0,1s0,.67,0,1a3.73,3.73,0,0,1-.17,1.06,1.57,1.57,0,0,1-.43.69,1,1,0,0,1-.69.24,1.93,1.93,0,0,1-.93-.3,3.61,3.61,0,0,1-.93-.77,5.25,5.25,0,0,1-.68-1,5.53,5.53,0,0,1-.43-1.2,6.08,6.08,0,0,1-.18-1.25c0-.31,0-.63,0-1S166.77,345.94,166.78,345.63Zm3.13,3.7c0-.13,0-.28,0-.43s0-.33,0-.49,0-.34,0-.49,0-.31,0-.43a3.17,3.17,0,0,0-.08-.55,2.67,2.67,0,0,0-.17-.5,1.73,1.73,0,0,0-.27-.43,1.52,1.52,0,0,0-.39-.32.79.79,0,0,0-.38-.12.41.41,0,0,0-.28.11.72.72,0,0,0-.17.3,1.94,1.94,0,0,0-.07.46c0,.12,0,.26,0,.41v1c0,.17,0,.32,0,.45a3,3,0,0,0,.24,1.05,1.59,1.59,0,0,0,.66.74c.3.17.52.18.66,0A1.31,1.31,0,0,0,169.91,349.33Z" style="fill:#1472F4"></path><path d="M174,346.81a3.35,3.35,0,0,1,.83.69,4.73,4.73,0,0,1,.66.9,5,5,0,0,1,.44,1,3.17,3.17,0,0,1,.16.83.2.2,0,0,1,0,.14.08.08,0,0,1-.1,0l-.93-.54a.42.42,0,0,1-.16-.13,1.6,1.6,0,0,1-.13-.21l-.06-.14a1.62,1.62,0,0,0-.14-.24,1,1,0,0,0-.21-.26,2,2,0,0,0-.31-.25l-.26-.12a.69.69,0,0,0-.22,0,.19.19,0,0,0-.16.08.38.38,0,0,0-.06.24.67.67,0,0,0,.07.31,1.35,1.35,0,0,0,.23.34,4.12,4.12,0,0,0,.42.42l.65.59a6.48,6.48,0,0,1,.69.7,5.08,5.08,0,0,1,.49.75,4.42,4.42,0,0,1,.29.82,4.72,4.72,0,0,1,.09,1,2.07,2.07,0,0,1-.16.9,1,1,0,0,1-.46.49,1.15,1.15,0,0,1-.7.07,2.64,2.64,0,0,1-.88-.34,3.92,3.92,0,0,1-.88-.71,5,5,0,0,1-1.14-1.9,3.34,3.34,0,0,1-.17-.92.21.21,0,0,1,.05-.15.08.08,0,0,1,.1,0l.93.54a.53.53,0,0,1,.16.13.78.78,0,0,1,.11.18l.09.19a2.7,2.7,0,0,0,.15.29,2.43,2.43,0,0,0,.24.32,1.48,1.48,0,0,0,.36.29,1.57,1.57,0,0,0,.63.23c.17,0,.26-.09.26-.3a.6.6,0,0,0-.1-.33,1.87,1.87,0,0,0-.27-.36c-.13-.14-.29-.29-.48-.46l-.68-.61a4.36,4.36,0,0,1-1.07-1.42A4.26,4.26,0,0,1,172,348a2.23,2.23,0,0,1,.14-.82,1.17,1.17,0,0,1,.4-.53,1,1,0,0,1,.64-.15A2,2,0,0,1,174,346.81Z" style="fill:#1472F4"></path><path d="M179.22,350a3.38,3.38,0,0,1,.82.63,4,4,0,0,1,.62.84,4.69,4.69,0,0,1,.4,1,5.19,5.19,0,0,1,.13,1.2,3.41,3.41,0,0,1-.13,1.05,1.1,1.1,0,0,1-.4.57.91.91,0,0,1-.62.13,2.41,2.41,0,0,1-.82-.31l-.91-.53v2.24a.21.21,0,0,1-.06.17.09.09,0,0,1-.13,0l-.93-.54a.32.32,0,0,1-.14-.16A.53.53,0,0,1,177,356V349a.24.24,0,0,1,.06-.18.12.12,0,0,1,.14,0Zm-.91,2.9.88.51a.54.54,0,0,0,.49.08c.13-.06.2-.24.2-.55a1.48,1.48,0,0,0-.2-.78,1.32,1.32,0,0,0-.49-.48l-.88-.51Z" style="fill:#1472F4"></path><path d="M182.14,359.3a.38.38,0,0,1-.14-.16.69.69,0,0,1-.05-.24v-7.08a.3.3,0,0,1,.05-.18.12.12,0,0,1,.14,0l.93.54a.41.41,0,0,1,.14.17.69.69,0,0,1,0,.24v7.08a.26.26,0,0,1,0,.17.11.11,0,0,1-.14,0Z" style="fill:#1472F4"></path><path d="M188,355a.34.34,0,0,1,.13.17.53.53,0,0,1,.06.24v1.16a.21.21,0,0,1-.06.17.09.09,0,0,1-.13,0l-1.25-.72v5.62a.24.24,0,0,1-.06.18.12.12,0,0,1-.14,0l-.93-.54a.4.4,0,0,1-.13-.17.53.53,0,0,1-.06-.24v-5.62l-1.25-.72a.41.41,0,0,1-.14-.17.52.52,0,0,1-.05-.24V353a.24.24,0,0,1,.05-.18.12.12,0,0,1,.14,0Z" style="fill:#1472F4"></path><path d="M191,356.77a.52.52,0,0,1,.22.24,1.5,1.5,0,0,1,.1.3l1.55,7.8a.82.82,0,0,1,0,.18.18.18,0,0,1-.05.14.08.08,0,0,1-.11,0l-.89-.52a.43.43,0,0,1-.21-.21.79.79,0,0,1-.07-.22l-.2-1-1.89-1.1-.2.8a.22.22,0,0,1-.08.13s-.11,0-.2,0l-.9-.52a.29.29,0,0,1-.11-.13.48.48,0,0,1,0-.2s0-.08,0-.15l1.56-6a.32.32,0,0,1,.1-.18c.05-.06.12-.06.22,0Zm-1.15,4.12,1.15.66-.58-3Z" style="fill:#1472F4"></path><path d="M197.06,366.17a.32.32,0,0,1,.14.16.53.53,0,0,1,.06.24v1.16a.23.23,0,0,1-.06.18s-.08,0-.14,0l-3.29-1.9a.41.41,0,0,1-.14-.17.52.52,0,0,1,0-.24v-7.08c0-.08,0-.14,0-.17a.11.11,0,0,1,.14,0l.93.54a.38.38,0,0,1,.14.16.69.69,0,0,1,0,.24v5.62Z" style="fill:#1472F4"></path></g><path d="M238.55,135.74l-11.94-6.88-13.05,7.53-5.38-3.11,31.29-18.06,5.38,3.11-12.24,7.07,11.93,6.89,12.24-7.08,5.38,3.11-31.28,18.07-5.39-3.11Z" style="fill:#1472F4"></path><path d="M235.59,153.48c-9.73,0-19.46-2.13-26.87-6.41s-11.5-10.06-11.5-16.26,4.08-12,11.5-16.25h0c14.82-8.56,38.92-8.56,53.74,0,7.42,4.28,11.5,10,11.5,16.25s-4.08,12-11.5,16.26S245.32,153.48,235.59,153.48Zm0-42.79c-9.26,0-18.52,2-25.58,6.1h0c-6.58,3.8-10.21,8.78-10.21,14s3.63,10.22,10.21,14c14.11,8.14,37.05,8.15,51.16,0,6.58-3.8,10.21-8.78,10.21-14s-3.63-10.22-10.21-14C254.12,112.72,244.85,110.69,235.59,110.69Z" style="fill:#1472F4"></path><polygon points="300.08 98.86 328.83 115.44 308.61 127.12 279.86 110.53 300.08 98.86" style="opacity:0.1"></polygon><polygon points="300.12 93.59 311.16 99.97 295.7 108.89 284.67 102.52 300.12 93.59" style="fill:#fafafa"></polygon><polygon points="311.16 99.97 311.16 106.34 295.7 115.26 295.7 108.89 311.16 99.97" style="fill:#e0e0e0"></polygon><polygon points="284.67 102.52 284.67 108.89 295.7 115.26 295.7 108.89 284.67 102.52" style="fill:#f0f0f0"></polygon><path d="M303.75,97.87c2,1.16,2,3,0,4.19a8,8,0,0,1-7.26,0c-2-1.16-2-3,0-4.19A8.07,8.07,0,0,1,303.75,97.87Z" style="fill:#e0e0e0"></path><path d="M301.82,99.06c.94.5.94,1.31,0,1.81a4,4,0,0,1-3.4,0c-.94-.5-.94-1.31,0-1.81A4.12,4.12,0,0,1,301.82,99.06Z" style="fill:#fafafa"></path><path d="M290.08,115.1a.54.54,0,0,0,.54-.54v-3.51l1.94-1.12A.54.54,0,0,0,292,109l-2.21,1.28a.52.52,0,0,0-.27.47v3.82A.54.54,0,0,0,290.08,115.1Z" style="fill:#1472F4"></path><path d="M286.87,113.26a.55.55,0,0,0,.55-.55V109.2l1.93-1.12a.54.54,0,0,0-.54-.94l-2.21,1.28a.53.53,0,0,0-.27.47v3.82A.55.55,0,0,0,286.87,113.26Z" style="fill:#1472F4"></path><polygon points="315.57 102.52 326.61 108.89 311.16 117.81 300.12 111.44 315.57 102.52" style="fill:#fafafa"></polygon><polygon points="326.61 108.89 326.61 115.26 311.16 124.18 311.16 117.81 326.61 108.89" style="fill:#e0e0e0"></polygon><polygon points="300.12 111.44 300.12 117.81 311.16 124.18 311.16 117.81 300.12 111.44" style="fill:#f0f0f0"></polygon><path d="M319.2,106.79c2,1.16,2,3,0,4.19a8,8,0,0,1-7.25,0c-2-1.16-2-3,0-4.19A8,8,0,0,1,319.2,106.79Z" style="fill:#e0e0e0"></path><path d="M317.27,108c.94.49.94,1.3,0,1.8a4,4,0,0,1-3.4,0c-.93-.5-.93-1.31,0-1.8A4,4,0,0,1,317.27,108Z" style="fill:#fafafa"></path><path d="M305.53,124a.55.55,0,0,0,.55-.55V120l1.93-1.12a.54.54,0,0,0-.54-.94l-2.21,1.28a.53.53,0,0,0-.27.47v3.82A.55.55,0,0,0,305.53,124Z" style="fill:#1472F4"></path><path d="M302.33,122.18a.55.55,0,0,0,.54-.55v-3.51l1.94-1.11a.55.55,0,0,0-.55-1l-2.2,1.28a.56.56,0,0,0-.28.47v3.82A.55.55,0,0,0,302.33,122.18Z" style="fill:#1472F4"></path><polygon points="223.19 82.52 244.23 94.67 244.23 63.18 223.19 51.08 223.19 82.52" style="fill:#e6e6e6"></polygon><g style="mix-blend-mode:multiply;opacity:0.1"><polygon points="223.19 82.52 244.23 94.67 244.23 63.18 223.19 51.08 223.19 82.52"></polygon></g><polygon points="271.19 79.11 244.23 94.67 244.23 63.18 271.19 47.68 271.19 79.11" style="fill:#f5f5f5"></polygon><polygon points="246.72 64.9 246.72 93.22 268.7 80.55 268.7 52.22 246.72 64.9" style="fill:#263238"></polygon><polygon points="267.67 52.82 246.72 64.9 246.72 91.99 267.67 79.91 267.67 52.82" style="fill:#37474f"></polygon><polygon points="257.18 58.89 257.18 85.96 258.24 85.35 258.24 58.28 257.18 58.89" style="fill:#263238"></polygon><g id="freepik--Latch--inject-24"><polygon points="259.18 70.08 259.4 70.21 259.4 73.98 259.18 73.85 259.18 70.08" style="fill:#e0e0e0"></polygon><polygon points="259.4 70.21 260.63 69.5 260.63 73.27 259.4 73.98 259.4 70.21" style="fill:#fafafa"></polygon><path d="M260.63,70.54l-.54.31v.61a.08.08,0,0,0,.11.07l.43-.25Z" style="opacity:0.05"></path><polygon points="260.63 69.5 260.4 69.37 259.18 70.08 259.4 70.21 260.63 69.5" style="fill:#ebebeb"></polygon><path d="M259.87,70.72l.56.33.23-.39-.56-.33h0a.17.17,0,0,0-.12,0,.37.37,0,0,0-.15.28S259.84,70.71,259.87,70.72Z" style="fill:#e0e0e0"></path><polygon points="260.09 70.85 260.3 70.97 260.3 70.7 260.51 70.57 260.31 70.45 260.09 70.58 260.09 70.85" style="opacity:0.1"></polygon><polygon points="260.36 70.74 260.36 71.33 262.61 70.03 262.61 69.44 260.36 70.74" style="fill:#fafafa"></polygon><polygon points="260.36 70.74 260.16 70.62 260.16 71.21 260.36 71.33 260.36 70.74" style="fill:#e0e0e0"></polygon><polygon points="262.61 69.44 262.41 69.33 260.16 70.62 260.36 70.74 262.61 69.44" style="fill:#ebebeb"></polygon><path d="M259.81,72.38A.44.44,0,0,1,260,72c.12-.07.21,0,.21.12a.49.49,0,0,1-.12.29v.38a.14.14,0,0,1-.07.12l0,0s-.07,0-.07,0v-.39C259.86,72.54,259.81,72.48,259.81,72.38Z" style="fill:#455a64"></path></g><polygon points="271.19 47.68 250.15 35.49 223.19 51.08 244.23 63.18 271.19 47.68" style="fill:#fafafa"></polygon></g></g><g id="freepik--Plants--inject-24"><path id="freepik--Shadow--inject-24" d="M151.19,393.2c1.88,1.1,1.88,2.88,0,4a7.48,7.48,0,0,1-6.8,0c-1.88-1.1-1.88-2.88,0-4A7.48,7.48,0,0,1,151.19,393.2Z" style="fill:#1472F4;opacity:0.4"></path><path id="freepik--shadow--inject-24" d="M203.22,425.44c1.87,1.1,1.87,2.88,0,4a7.44,7.44,0,0,1-6.81,0c-1.88-1.09-1.88-2.87,0-4A7.5,7.5,0,0,1,203.22,425.44Z" style="fill:#1472F4;opacity:0.4"></path><g id="freepik--Plant--inject-24"><g id="freepik--Pot--inject-24"><g id="freepik--pot--inject-24"><path d="M151.82,391.67h-8.06l.83,3.47h0a1.69,1.69,0,0,0,.92,1.15,5,5,0,0,0,4.54,0A1.65,1.65,0,0,0,151,395Z" style="fill:#37474f"></path><path d="M150.83,394.05a2.64,2.64,0,0,0,.49-.34l.45-1.85a3.66,3.66,0,0,1-.81.65,7.06,7.06,0,0,1-6.18.08l.2-.83-.06-.09h-1.16l.83,3.47h0a1.69,1.69,0,0,0,.92,1.15,5,5,0,0,0,3.3.44c-2,.15-3.38-.73-3.59-1.54-.08-.32-.23-1-.23-1A6.73,6.73,0,0,0,150.83,394.05Z" style="fill:#263238"></path><path d="M152.23,390.65a1.75,1.75,0,0,1-.26.62,3,3,0,0,1-1,.9,7,7,0,0,1-6.34,0,3,3,0,0,1-1-.9,1.75,1.75,0,0,1-.26-.62h0a2.08,2.08,0,0,1,1.28-2.13,7,7,0,0,1,6.34,0A2.06,2.06,0,0,1,152.23,390.65Z" style="fill:#455a64"></path><path d="M152,391.27a3,3,0,0,1-1,.9,7,7,0,0,1-6.34,0,3,3,0,0,1-1-.9,1.75,1.75,0,0,1-.26-.62h0l.2,1.36a2.27,2.27,0,0,0,1.23,1.51,6.69,6.69,0,0,0,6,0A2.3,2.3,0,0,0,152,392V392l.19-1.31A1.75,1.75,0,0,1,152,391.27Z" style="fill:#37474f"></path><path d="M150.43,388.82a5.85,5.85,0,0,0-5.28,0,1.75,1.75,0,0,0-1.07,1.74,2,2,0,0,0,1.07,1.3,5.79,5.79,0,0,0,5.28,0,2,2,0,0,0,1.07-1.3A1.75,1.75,0,0,0,150.43,388.82Z" style="fill:#263238"></path><path d="M144.32,391.14a2.6,2.6,0,0,0,.83.72,5.79,5.79,0,0,0,5.28,0,2.6,2.6,0,0,0,.83-.72,1.74,1.74,0,0,0-1-1.39,5.36,5.36,0,0,0-4.9,0A1.74,1.74,0,0,0,144.32,391.14Z" style="fill:#fafafa"></path></g><g id="freepik--plants--inject-24"><path d="M150.76,378.54l-2.29,2,2.25-1.15a6.29,6.29,0,0,1-.32,2.19,14.53,14.53,0,0,0-1.73,1.33l1.73-.76a9,9,0,0,1-.25,2.94,17.68,17.68,0,0,1-.9,2,7.69,7.69,0,0,1-.47.9l0,.06c-.41-.22-.83-.42-1.28-.62a13.21,13.21,0,0,1-.91-3.23c-.68-4.58,2.7-7.35,5.46-8.34A8.24,8.24,0,0,0,150.76,378.54Z" style="fill:#1472F4"></path><path d="M148.79,378.81a4.41,4.41,0,0,0-.92,1.8,9.19,9.19,0,0,0-.34,2,8.69,8.69,0,0,0,.65,4h0a.08.08,0,0,1,0,.09.07.07,0,0,1-.09,0h0a8.86,8.86,0,0,1-.6-4,9.9,9.9,0,0,1,.38-2A4.43,4.43,0,0,1,148.79,378.81Z" style="fill:#fff"></path><path d="M140.86,380.34h0a35,35,0,0,1,1.95,4.1l2.45.85h-1.92l.72,1.76,2.39.95-2,0a5.08,5.08,0,0,0,1.44,3c.69.57,1,.64,1.32.52s.62-.65.9-1.44a8.07,8.07,0,0,0-.2-4.18,5.29,5.29,0,0,0-.58-1.31A11,11,0,0,0,140.86,380.34Z" style="fill:#1472F4"></path><path d="M140.86,380.34h0a35,35,0,0,1,1.95,4.1l2.45.85h-1.92l.72,1.76,2.39.95-2,0a5.08,5.08,0,0,0,1.44,3c.69.57,1,.64,1.32.52s.62-.65.9-1.44a8.07,8.07,0,0,0-.2-4.18,5.29,5.29,0,0,0-.58-1.31A11,11,0,0,0,140.86,380.34Z" style="opacity:0.1"></path><path d="M143.35,381.63a10.46,10.46,0,0,1,3.07,3,7,7,0,0,1,.88,2,6.64,6.64,0,0,1,.19,2.17h0a8.42,8.42,0,0,0-.3-2.13,8,8,0,0,0-.85-2,10.57,10.57,0,0,0-3-3.09h0Z" style="fill:#fff"></path><path d="M156.5,381.2h0a5.07,5.07,0,0,0-.76,0,12.29,12.29,0,0,0-2.9.71,10.44,10.44,0,0,0-1,.44c-.17.08-.34.16-.51.26a8.44,8.44,0,0,0-2.22,1.68,5.68,5.68,0,0,0-.77,1.07,1.09,1.09,0,0,1-.08.15h0l-.17.39a7.18,7.18,0,0,0-.66,3.57,4.69,4.69,0,0,0,.49,2l.08.06c.25.15.64.06,1.37-.35a5.35,5.35,0,0,0,2-2.9l-2-.35,2.62-.52L153,385.8l-2-.36,2.67-.41a40.57,40.57,0,0,1,2.76-3.83Z" style="fill:#1472F4"></path><path d="M155.74,381.23a12.29,12.29,0,0,0-2.9.71,10.44,10.44,0,0,0-1,.44c-.17.08-.34.16-.51.26a8.44,8.44,0,0,0-2.22,1.68,5.68,5.68,0,0,0-.77,1.07,1.09,1.09,0,0,1-.08.15h0l-.17.39a7.18,7.18,0,0,0-.66,3.57,4.69,4.69,0,0,0,.49,2l.08.06a.44.44,0,0,0,.16.06,9.55,9.55,0,0,1,8.37-10.44h0A4.94,4.94,0,0,0,155.74,381.23Z" style="fill:#1472F4"></path><path d="M155.74,381.23a12.29,12.29,0,0,0-2.9.71,10.44,10.44,0,0,0-1,.44c-.17.08-.34.16-.51.26a8.44,8.44,0,0,0-2.22,1.68,5.68,5.68,0,0,0-.77,1.07,1.09,1.09,0,0,1-.08.15h0l-.17.39a7.18,7.18,0,0,0-.66,3.57,4.69,4.69,0,0,0,.49,2l.08.06a.44.44,0,0,0,.16.06,9.55,9.55,0,0,1,8.37-10.44h0A4.94,4.94,0,0,0,155.74,381.23Z" style="opacity:0.2"></path><path d="M148.11,391.64a11.41,11.41,0,0,1,.2-3,9.4,9.4,0,0,1,1-2.81,8.31,8.31,0,0,1,2-2.23,11.06,11.06,0,0,1,2.56-1.53h0a14.55,14.55,0,0,0-2.45,1.64,10.33,10.33,0,0,0-1.08,1,5.85,5.85,0,0,0-.9,1.15,9.32,9.32,0,0,0-1,2.77,11.22,11.22,0,0,0-.26,2.95h0Z" style="fill:#fff"></path></g></g></g><g id="freepik--plant--inject-24"><g id="freepik--pot--inject-24"><g id="freepik--pot--inject-24"><path d="M203.84,423.91h-8.05l.83,3.47h0a1.68,1.68,0,0,0,.93,1.15,5,5,0,0,0,4.53,0,1.66,1.66,0,0,0,.94-1.25Z" style="fill:#37474f"></path><path d="M202.86,426.29a3.69,3.69,0,0,0,.48-.34l.45-1.85a3.25,3.25,0,0,1-.81.65,7.06,7.06,0,0,1-6.18.08L197,424l-.07-.09h-1.15l.83,3.47h0a1.68,1.68,0,0,0,.93,1.15,5,5,0,0,0,3.29.44c-2,.15-3.38-.73-3.59-1.54-.08-.32-.22-1-.22-1A6.73,6.73,0,0,0,202.86,426.29Z" style="fill:#263238"></path><path d="M204.26,422.89a1.61,1.61,0,0,1-.27.62,2.9,2.9,0,0,1-1,.9,7,7,0,0,1-6.33,0,2.82,2.82,0,0,1-1-.9,1.61,1.61,0,0,1-.27-.62h0c-.16-.76.27-1.55,1.28-2.14a7,7,0,0,1,6.33,0A2.09,2.09,0,0,1,204.26,422.89Z" style="fill:#455a64"></path><path d="M204,423.51a2.9,2.9,0,0,1-1,.9,7,7,0,0,1-6.33,0,2.82,2.82,0,0,1-1-.9,1.61,1.61,0,0,1-.27-.62h0l.2,1.36a2.27,2.27,0,0,0,1.23,1.51,6.67,6.67,0,0,0,6,0,2.32,2.32,0,0,0,1.23-1.49v-.07l.19-1.31A1.61,1.61,0,0,1,204,423.51Z" style="fill:#37474f"></path><path d="M202.45,421.06a5.83,5.83,0,0,0-5.27,0,1.73,1.73,0,0,0-1.08,1.74,2,2,0,0,0,1.08,1.3,5.76,5.76,0,0,0,5.27,0,2,2,0,0,0,1.07-1.3A1.72,1.72,0,0,0,202.45,421.06Z" style="fill:#263238"></path><path d="M196.35,423.38a2.4,2.4,0,0,0,.83.72,5.76,5.76,0,0,0,5.27,0,2.5,2.5,0,0,0,.83-.72,1.73,1.73,0,0,0-1-1.39,5.38,5.38,0,0,0-4.91,0A1.73,1.73,0,0,0,196.35,423.38Z" style="fill:#fafafa"></path></g><g id="freepik--plants--inject-24"><path d="M202.79,410.78l-2.3,2,2.25-1.15a6.45,6.45,0,0,1-.31,2.19,14.3,14.3,0,0,0-1.74,1.33l1.73-.76a9,9,0,0,1-.25,2.94,17.42,17.42,0,0,1-.89,2,7.77,7.77,0,0,1-.48.9l0,.06c-.41-.22-.84-.42-1.28-.62a12.91,12.91,0,0,1-.91-3.23c-.68-4.58,2.69-7.35,5.45-8.34A8.33,8.33,0,0,0,202.79,410.78Z" style="fill:#1472F4"></path><path d="M200.81,411.05a4.45,4.45,0,0,0-.91,1.8,9.84,9.84,0,0,0-.35,2,8.56,8.56,0,0,0,.66,4h0s0,.08,0,.09a.06.06,0,0,1-.08,0h0a8.54,8.54,0,0,1-.6-4,9.24,9.24,0,0,1,.37-2A4.69,4.69,0,0,1,200.81,411.05Z" style="fill:#fff"></path><path d="M192.88,412.58h0a36.17,36.17,0,0,1,1.94,4.1l2.45.85h-1.91l.71,1.76,2.39.95-2,0a5.08,5.08,0,0,0,1.45,3c.69.57,1,.64,1.32.52s.62-.65.89-1.44a8,8,0,0,0-.19-4.18,5,5,0,0,0-.59-1.31A10.92,10.92,0,0,0,192.88,412.58Z" style="fill:#1472F4"></path><path d="M192.88,412.58h0a36.17,36.17,0,0,1,1.94,4.1l2.45.85h-1.91l.71,1.76,2.39.95-2,0a5.08,5.08,0,0,0,1.45,3c.69.57,1,.64,1.32.52s.62-.65.89-1.44a8,8,0,0,0-.19-4.18,5,5,0,0,0-.59-1.31A10.92,10.92,0,0,0,192.88,412.58Z" style="opacity:0.1"></path><path d="M195.37,413.87a10.34,10.34,0,0,1,3.07,3,7,7,0,0,1,.89,2,6.61,6.61,0,0,1,.18,2.17h0a8.43,8.43,0,0,0-.31-2.13,8,8,0,0,0-.84-2,10.73,10.73,0,0,0-3-3.09h0Z" style="fill:#fff"></path><path d="M208.52,413.44h0a5.12,5.12,0,0,0-.76,0,12.29,12.29,0,0,0-2.9.71c-.35.13-.69.27-1,.44-.17.08-.34.16-.5.25a8.77,8.77,0,0,0-2.23,1.68,5.4,5.4,0,0,0-.76,1.08,1.09,1.09,0,0,0-.08.15h0a3.39,3.39,0,0,0-.18.39,7.29,7.29,0,0,0-.66,3.57,4.65,4.65,0,0,0,.5,2l.07.06c.25.15.64.06,1.38-.35a5.31,5.31,0,0,0,2-2.9l-2-.35,2.62-.52,1.07-1.66-2-.36,2.66-.41a39.38,39.38,0,0,1,2.77-3.83Z" style="fill:#1472F4"></path><path d="M207.76,413.47a12.29,12.29,0,0,0-2.9.71c-.35.13-.69.27-1,.44-.17.08-.34.16-.5.25a8.77,8.77,0,0,0-2.23,1.68,5.4,5.4,0,0,0-.76,1.08,1.09,1.09,0,0,0-.08.15h0a3.39,3.39,0,0,0-.18.39,7.29,7.29,0,0,0-.66,3.57,4.65,4.65,0,0,0,.5,2l.07.06a.85.85,0,0,0,.17.06,11.83,11.83,0,0,1,1.47-6.15,12,12,0,0,1,6.9-4.29h0A5,5,0,0,0,207.76,413.47Z" style="fill:#1472F4"></path><path d="M207.76,413.47a12.29,12.29,0,0,0-2.9.71c-.35.13-.69.27-1,.44-.17.08-.34.16-.5.25a8.77,8.77,0,0,0-2.23,1.68,5.4,5.4,0,0,0-.76,1.08,1.09,1.09,0,0,0-.08.15h0a3.39,3.39,0,0,0-.18.39,7.29,7.29,0,0,0-.66,3.57,4.65,4.65,0,0,0,.5,2l.07.06a.85.85,0,0,0,.17.06,11.83,11.83,0,0,1,1.47-6.15,12,12,0,0,1,6.9-4.29h0A5,5,0,0,0,207.76,413.47Z" style="opacity:0.2"></path><path d="M200.14,423.88a11.4,11.4,0,0,1,.19-3,9.68,9.68,0,0,1,1-2.81,8.52,8.52,0,0,1,2-2.23,11.21,11.21,0,0,1,2.55-1.53h0v0a15,15,0,0,0-2.46,1.64,11.43,11.43,0,0,0-1.08,1,6.26,6.26,0,0,0-.9,1.15,9.32,9.32,0,0,0-1,2.77,11.62,11.62,0,0,0-.26,2.95h0Z" style="fill:#fff"></path></g></g></g></g><g id="freepik--Ambulance--inject-24"><path id="freepik--shadow--inject-24" d="M409.18,397.75a.6.6,0,0,0,0-1.13l-22.83-13.18a2.18,2.18,0,0,0-2,0l-51.7,29.87c-2.16,1.25-2.16,3.27,0,4.52l17,9.79a8.64,8.64,0,0,0,7.83,0Z" style="opacity:0.2"></path><g id="freepik--ambulance--inject-24"><g id="freepik--Cab--inject-24"><g id="freepik--percentage-box--inject-24"><path d="M338.85,387.81l-1.5-.87a.35.35,0,0,0-.35,0l-.36.21a.36.36,0,0,0-.15.32v3.62a1.13,1.13,0,0,0,.5.86l1.5.87a.33.33,0,0,0,.35,0l.36-.21a.34.34,0,0,0,.15-.32v-3.61A1.08,1.08,0,0,0,338.85,387.81Z" style="fill:#fafafa"></path><path d="M339.35,388.67v3.61a.34.34,0,0,1-.15.32l-.34.21a.37.37,0,0,0,.13-.32v-3.61a1,1,0,0,0-.15-.49l.36-.21A1,1,0,0,1,339.35,388.67Z" style="fill:#e0e0e0"></path><path d="M337,391.91l1.5.87c.28.16.5,0,.5-.29v-3.61a1.08,1.08,0,0,0-.5-.86l-1.5-.87c-.27-.16-.5,0-.5.28v3.62A1.13,1.13,0,0,0,337,391.91Z" style="fill:#f5f5f5"></path></g><path d="M338.94,394.91a.13.13,0,0,0,.11-.06.14.14,0,0,0-.05-.18l-1.05-.6a.14.14,0,0,1-.06-.11v-4a.12.12,0,0,0-.12-.12.12.12,0,0,0-.13.12v4a.39.39,0,0,0,.19.33l1.05.6Z" style="fill:#263238"></path><path d="M365.93,414.43l-4.26-2s.34-4,3.14-3S365.93,414.43,365.93,414.43Z" style="fill:#37474f"></path><path d="M363.59,413.93l.91-1.82-2.17-1.26h0a2.6,2.6,0,0,0-2.63.23,9,9,0,0,0-3.89,7.16,3.16,3.16,0,0,0,1.24,2.87h0l0,0h0l2.23,1.29,1-1.92A9.28,9.28,0,0,0,363.59,413.93Z" style="fill:#263238"></path><path d="M365.86,415.05a9.34,9.34,0,0,1-3,6.53h0a6.13,6.13,0,0,1-.86.61c-2.15,1.24-3.89.05-3.89-2.66a9.41,9.41,0,0,1,2.41-5.92v0a6.57,6.57,0,0,1,1.47-1.21C364.12,411.15,365.86,412.34,365.86,415.05Z" style="fill:#37474f"></path><path d="M362,414c1.37-.79,2.48,0,2.48,1.83a5.92,5.92,0,0,1-2.48,4.71c-1.36.79-2.47,0-2.47-1.84A5.91,5.91,0,0,1,362,414Z" style="fill:#455a64"></path><path d="M362,415.6c.72-.41,1.29,0,1.29.95A3,3,0,0,1,362,419c-.71.41-1.28,0-1.28-.95A3.05,3.05,0,0,1,362,415.6Z" style="fill:#e0e0e0"></path><path d="M362.38,415.58a1.08,1.08,0,0,1,.28-.11c.35.09.59.48.59,1.08a3.22,3.22,0,0,1-.72,1.94l-.15.11c-.64.36-1.15,0-1.15-.85A2.72,2.72,0,0,1,362.38,415.58Z" style="fill:#f5f5f5"></path><path d="M365.86,415.05a9.34,9.34,0,0,1-3,6.53,11.16,11.16,0,0,0,2.47-4.78c.32-1.56.2-3.8-1.14-4.37s-3.11.63-3.67,1.17a6.57,6.57,0,0,1,1.47-1.21C364.12,411.15,365.86,412.34,365.86,415.05Z" style="fill:#455a64"></path><path d="M331.64,405.62v4.73c5.11,6.1,12.22,9.81,20.67,11.94l4.27-2.46v-.39a10.25,10.25,0,0,1,2.56-6.28c.09-.11.19-.23.29-.33l.22-.22a8.7,8.7,0,0,1,1-.86c.21-.14.41-.28.62-.4s.25-.14.39-.2L362,411l.33-.11a3.37,3.37,0,0,1,1-.16,2.55,2.55,0,0,1,1,.22,2.58,2.58,0,0,1,.63.45,3.72,3.72,0,0,1,.9,2.66v.39h0l3.77-2.17,6.65-3.84V379.23L355.68,367.3h0l-2.17,1.25-.62.38-.51.33-.14.09-.25.18-.29.21-.85.67c-.19.15-.37.31-.54.47l-.27.24c-.18.16-.34.33-.51.5l-.5.52-.42.47-.14.17-.36.44a2.35,2.35,0,0,0-.19.25c-.1.12-.2.26-.3.39l-.23.33a4,4,0,0,0-.23.34l-.17.25c-.17.26-.32.52-.48.79s-.2.35-.29.53l-13.05,24.49-.29.55-.21.39h0l0,.06A8.66,8.66,0,0,0,331.64,405.62Z" style="fill:#f0f0f0"></path><path d="M336.63,411.22a58.74,58.74,0,0,0,8,4.63.71.71,0,0,0,1-.4,13.66,13.66,0,0,0,.56-2,1.12,1.12,0,0,0-.59-1.11,95.3,95.3,0,0,1-9.35-5.4c-.36-.24-.67-.08-.66.35a16.4,16.4,0,0,0,.28,2.7A2.11,2.11,0,0,0,336.63,411.22Z" style="fill:#263238"></path><path d="M349.87,371.3l20.62,11.95a19.12,19.12,0,0,1,3.69-2.77l2.17-1.25L355.68,367.3l-2.17,1.25A18.44,18.44,0,0,0,349.87,371.3Z" style="fill:#fafafa"></path><path d="M352.31,417.55v4.74l0,0,.3-.18,3.93-2.26v-.39a10.25,10.25,0,0,1,2.56-6.28c.09-.11.19-.23.29-.33l.22-.22a8.7,8.7,0,0,1,1-.86c.21-.14.41-.28.62-.4s.25-.14.39-.2L362,411l.33-.11a3.37,3.37,0,0,1,1-.16,2.55,2.55,0,0,1,1,.22,2.58,2.58,0,0,1,.63.45,3.72,3.72,0,0,1,.9,2.66v.39h0l3.77-2.17,6.65-3.84V379.23l-2.17,1.25a18.77,18.77,0,0,0-4.48,3.59,19.27,19.27,0,0,0-2.81,3.95l-13.05,24.51-.5.93h0A8.69,8.69,0,0,0,352.31,417.55Z" style="fill:#e0e0e0"></path><path d="M355.69,404.86l-1.57.9a1.52,1.52,0,0,1-1,.19c-4.19-.65-12.69-5.16-15.22-8.9a1.39,1.39,0,0,1-.23-.8v-1.84a1.47,1.47,0,0,1,.18-.71l6-11.12a.75.75,0,0,1,1.05-.3l17,9.82a.78.78,0,0,1,.3,1l-5.94,11.13A1.5,1.5,0,0,1,355.69,404.86Z" style="fill:#37474f"></path><g style="opacity:0.1"><path d="M344.87,383.07l.33-.61,6.38,3.68a11.22,11.22,0,0,1-5.1,6.36l-1.61.93Z" style="fill:#fff"></path><path d="M344.11,384.49v9.38l-4.57,2.64a.87.87,0,0,1-1.2-1.17Z" style="fill:#fff"></path></g><path d="M337.92,397.05a1.39,1.39,0,0,1-.23-.8v-1.84a1.7,1.7,0,0,1,.09-.5c1.9.95,5,2.57,8.71,4.68,4.21,2.42,7.79,4.74,9.58,5.94a1.74,1.74,0,0,1-.38.33l-1.57.9a1.52,1.52,0,0,1-1,.19C349,405.3,340.45,400.79,337.92,397.05Z" style="fill:#263238"></path><path d="M366,391.39l-8.08,15.18a.87.87,0,0,0,1.2,1.17l6.94-4a11.24,11.24,0,0,0,5.63-9.82l0-5.67a.57.57,0,0,0-.86-.5L368,389.38A5.14,5.14,0,0,0,366,391.39Z" style="fill:#37474f"></path><polygon points="364.47 404.66 363.71 405.1 363.71 395.72 364.47 394.31 364.47 404.66" style="fill:#263238"></polygon><path d="M347,404.67c-1-.49-1.91-1-2.84-1.59a.12.12,0,0,0-.19.06l-.24.65a.18.18,0,0,0,.08.23,23.25,23.25,0,0,0,2.26,1.19h.09L347,405C347.14,405,347.13,404.74,347,404.67Z" style="fill:#455a64"></path><path d="M340.64,401.06l.39,1a.16.16,0,0,0,.06.08,22.07,22.07,0,0,0,2.14,1.53.12.12,0,0,0,.19-.06l.24-.65a.2.2,0,0,0-.08-.23c-.93-.58-1.84-1.2-2.74-1.85C340.71,400.78,340.58,400.91,340.64,401.06Z" style="fill:#455a64"></path><path d="M330.7,409.18v.52l.94.88v-.23c5.11,6.1,12.22,9.81,20.67,11.94v-2.1c-8.45-2.13-15.56-5.84-20.67-11.94v-.62l-.06,0A1.75,1.75,0,0,0,330.7,409.18Z" style="fill:#455a64"></path><path d="M352.31,420.19v2.1l2.93-.81V419.3l-.76-.36Z" style="fill:#37474f"></path><path d="M330.7,409.18v.62a1.49,1.49,0,0,0,.36,1c5.1,5.88,12.16,10,20.31,12.15,1.23.47,3.87-1.44,3.87-1.44V419.3s-2.61,1.91-3.87,1.45c-8.25-2.24-15.3-6.3-20.48-12.36A1.77,1.77,0,0,0,330.7,409.18Z" style="fill:#37474f"></path><path d="M352.31,420.76a9.84,9.84,0,0,0,2.93-1.46v2.18a10,10,0,0,1-2.93,1.46Z" style="fill:#263238"></path><path d="M349.89,414.11c.69.07,1.29.3,1.2.93a4,4,0,0,1-.68,1.86.82.82,0,0,1-.35.34.67.67,0,0,1-.34.05,6.11,6.11,0,0,1-2.07-.48,1.88,1.88,0,0,1-.66-.41c-.27-.34,0-1.34.19-1.86s.46-.45,1.05-.49A11.5,11.5,0,0,1,349.89,414.11Z" style="fill:#1472F4"></path><path d="M349.89,414.11c.69.07,1.29.3,1.2.93a4,4,0,0,1-.68,1.86.82.82,0,0,1-.35.34.67.67,0,0,1-.34.05,6.11,6.11,0,0,1-2.07-.48,1.88,1.88,0,0,1-.66-.41c-.27-.34,0-1.34.19-1.86s.46-.45,1.05-.49A11.5,11.5,0,0,1,349.89,414.11Z" style="fill:#fff;opacity:0.7000000000000001"></path><path d="M350,414.45a.75.75,0,0,1,.54.45.93.93,0,0,1,0,.37,1.69,1.69,0,0,1-.35,1.08.83.83,0,0,1-1.05.19.85.85,0,0,1-.26-.33,1.33,1.33,0,0,1-.14-.9A1.07,1.07,0,0,1,350,414.45Z" style="fill:#fff"></path><path d="M348.34,416.19c-.07.36-.62.17-.86,0a.52.52,0,0,1-.11-.1.36.36,0,0,1,0-.11c-.06-.28.15-.64.46-.61a.79.79,0,0,1,.56.67A.53.53,0,0,1,348.34,416.19Z" style="fill:#fff"></path><path d="M334.35,406.18a1.19,1.19,0,0,1,.34.79,11,11,0,0,1-.08,1.72c-.1.6-.85.21-1.21-.05a2.86,2.86,0,0,1-.76-.67,6,6,0,0,1-.31-2.66.87.87,0,0,1,.1-.51c.28-.42,1,.37,1.23.6A4.9,4.9,0,0,1,334.35,406.18Z" style="fill:#1472F4"></path><path d="M334.35,406.18a1.19,1.19,0,0,1,.34.79,11,11,0,0,1-.08,1.72c-.1.6-.85.21-1.21-.05a2.86,2.86,0,0,1-.76-.67,6,6,0,0,1-.31-2.66.87.87,0,0,1,.1-.51c.28-.42,1,.37,1.23.6A4.9,4.9,0,0,1,334.35,406.18Z" style="fill:#fff;opacity:0.7000000000000001"></path><path d="M333.33,408a.61.61,0,0,0,.2.28,1.56,1.56,0,0,0,.41.2c.53.19.4-.92-.09-1a.47.47,0,0,0-.54.42A.5.5,0,0,0,333.33,408Z" style="fill:#fff"></path><path d="M333.57,406a1,1,0,0,1,.21.73,1,1,0,0,1-.14.28c-.71,1-1.16-.6-1-1.2S333.28,405.53,333.57,406Z" style="fill:#fff"></path><g id="freepik--percentage-box--inject-24"><path d="M364.48,402.36l-1.51-.87a.35.35,0,0,0-.35,0l-.35.21a.36.36,0,0,0-.15.32v3.62a1.08,1.08,0,0,0,.49.85l1.51.88a.33.33,0,0,0,.35,0l.36-.21a.34.34,0,0,0,.14-.32v-3.61A1.1,1.1,0,0,0,364.48,402.36Z" style="fill:#fafafa"></path><path d="M365,403.22v3.61a.34.34,0,0,1-.14.32l-.35.21a.38.38,0,0,0,.13-.32v-3.61a1,1,0,0,0-.14-.49l.36-.21A1,1,0,0,1,365,403.22Z" style="fill:#e0e0e0"></path><path d="M362.61,406.45l1.51.88c.27.16.5,0,.5-.29v-3.61a1.11,1.11,0,0,0-.5-.86l-1.51-.87c-.27-.16-.49,0-.49.28v3.62A1.08,1.08,0,0,0,362.61,406.45Z" style="fill:#f5f5f5"></path></g><path d="M361.27,407.06a1.11,1.11,0,0,0-.51.88c0,.32.23.45.51.29a1.13,1.13,0,0,0,.51-.88C361.78,407,361.55,406.89,361.27,407.06Z" style="fill:#37474f"></path><path d="M363.05,408.76a.41.41,0,0,0,.19-.05.37.37,0,0,0,.19-.33v-3.67a.12.12,0,0,0-.13-.12.12.12,0,0,0-.12.12v3.67a.12.12,0,0,1-.07.11.12.12,0,0,1-.12,0l-1.66-1a.13.13,0,0,0-.17.05.13.13,0,0,0,0,.17l1.66,1A.37.37,0,0,0,363.05,408.76Z" style="fill:#263238"></path><path d="M336.3,417.29l5.95,3.43c.17.1.3,0,.3-.22v-1.86a.71.71,0,0,0-.3-.57l-5.95-3.43c-.16-.1-.29,0-.29.22v1.86A.73.73,0,0,0,336.3,417.29Z" style="fill:#f5f5f5"></path><path d="M342.2,420.82l-5.95-3.44h0a.8.8,0,0,1-.35-.66v-1.86a.37.37,0,0,1,.16-.33.28.28,0,0,1,.3,0l5.95,3.43a.82.82,0,0,1,.35.66v1.86a.37.37,0,0,1-.16.33.28.28,0,0,1-.13,0A.41.41,0,0,1,342.2,420.82Zm-6-6.1a.17.17,0,0,0-.05.14v1.86a.63.63,0,0,0,.25.48l5.95,3.43a.11.11,0,0,0,.08,0s.05-.06.05-.15v-1.86a.63.63,0,0,0-.24-.48l-5.95-3.43-.06,0Z" style="fill:#e0e0e0"></path><path d="M336.17,401.8a.11.11,0,0,1,.06.07s0,.06,0,.08L336,404.1v0l0,0h0l-.3-.17s-.05,0-.05-.06a.2.2,0,0,1,0-.07l0-.28-.62-.36-.16.21s0,0,0,0a.08.08,0,0,1-.08,0l-.29-.17s0,0,0,0a0,0,0,0,1,0-.05.05.05,0,0,1,0,0l1.23-1.56.05,0a.1.1,0,0,1,.09,0Zm-.88,1.06.38.22.08-.82Z" style="fill:#1472F4"></path><path d="M337.06,404.19s0,0,0-.06l0-.61-.38,1s0,0,0,0a0,0,0,0,1-.05,0l-.31-.18a0,0,0,0,1,0,0,.08.08,0,0,1,0-.07l.74-1.9,0,0H337l.27.16a.13.13,0,0,1,.06.07.18.18,0,0,1,0,.06l.06,1,.7-.6.05,0a.08.08,0,0,1,.08,0l.27.16a.07.07,0,0,1,0,.05.13.13,0,0,1,0,.06l-.74,1.9s0,0,0,0h-.05l-.31-.18a.11.11,0,0,1,0-.05.06.06,0,0,1,0-.06l.38-1-.41.35a.05.05,0,0,1-.05,0,.06.06,0,0,1-.06,0l-.15-.09A.1.1,0,0,1,337.06,404.19Z" style="fill:#1472F4"></path><path d="M338.19,405.48a.09.09,0,0,1,0-.05.06.06,0,0,1,0-.06l.74-1.9s0,0,0,0H339l.75.43a.75.75,0,0,1,.25.21.86.86,0,0,1,.11.24.69.69,0,0,1,0,.25.86.86,0,0,1-.06.23.53.53,0,0,1-.15.23l-.07.05,0,0a.6.6,0,0,1,0,.26.74.74,0,0,1-.06.27.94.94,0,0,1-.12.22.61.61,0,0,1-.17.15.41.41,0,0,1-.22,0,.54.54,0,0,1-.28-.09Zm1.43-.93a.17.17,0,0,0,0-.14.21.21,0,0,0-.08-.11l-.37-.2-.13.33.37.21a.11.11,0,0,0,.12,0S339.6,404.6,339.62,404.55Zm-.88.69.38.22a.18.18,0,0,0,.14,0,.2.2,0,0,0,.09-.11.26.26,0,0,0,0-.15.23.23,0,0,0-.1-.12l-.38-.22Z" style="fill:#1472F4"></path><path d="M341.93,405.12a.1.1,0,0,1,0,.05.15.15,0,0,1,0,.07l-.45,1.17a1.44,1.44,0,0,1-.19.33.83.83,0,0,1-.25.18.7.7,0,0,1-.29,0,1.1,1.1,0,0,1-.31-.12.92.92,0,0,1-.26-.22.77.77,0,0,1-.17-.29.94.94,0,0,1,0-.34,1.55,1.55,0,0,1,.09-.39l.45-1.17s0,0,0,0h.06l.3.17a.1.1,0,0,1,0,.05.16.16,0,0,1,0,.07l-.46,1.16a.58.58,0,0,0,0,.31.29.29,0,0,0,.17.22.22.22,0,0,0,.24,0,.43.43,0,0,0,.18-.24l.45-1.16s0,0,0,0h.06Z" style="fill:#1472F4"></path><path d="M342.83,407.58a.1.1,0,0,1,0,.05.15.15,0,0,1,0,.07l-.12.31a.1.1,0,0,1,0,.05h-.05l-1.08-.62a.1.1,0,0,1,0-.05.2.2,0,0,1,0-.07l.73-1.89,0-.05h.06l.3.17a.1.1,0,0,1,0,.05.17.17,0,0,1,0,.07l-.58,1.5Z" style="fill:#1472F4"></path><path d="M344.57,406.65s.06,0,.06.07a.28.28,0,0,1,0,.09l-.21,2.14a.07.07,0,0,1,0,.05s0,0,0,0h0l-.3-.17a.06.06,0,0,1-.05-.06.13.13,0,0,1,0-.06l0-.28-.62-.36-.16.21,0,0a.12.12,0,0,1-.08,0l-.29-.17a.05.05,0,0,1,0,0,.06.06,0,0,1,0-.06l0,0,1.22-1.55.06-.05a.1.1,0,0,1,.09,0Zm-.87,1.06.38.22.08-.81Z" style="fill:#1472F4"></path><path d="M345.65,409.79a.12.12,0,0,1,0-.07.14.14,0,0,1,0-.06l-.14-1.31-.39,1a.1.1,0,0,1,0,.05H345l-.31-.18a.05.05,0,0,1,0,0,.08.08,0,0,1,0-.07l.74-1.89a.07.07,0,0,1,0-.05h.05l.24.14a.09.09,0,0,1,.06.06.18.18,0,0,1,0,.06l.15,1.31.38-1a.1.1,0,0,1,0-.05h.06l.3.17a.1.1,0,0,1,0,.05.17.17,0,0,1,0,.07l-.73,1.89a.11.11,0,0,1,0,.05h-.06Z" style="fill:#1472F4"></path><path d="M347.15,409.1l0,.1-.06.14-.05.14,0,.11,0,.14a.66.66,0,0,0,0,.14.34.34,0,0,0,.06.12.43.43,0,0,0,.12.11.34.34,0,0,0,.14,0h.11l.08,0,.06-.07.05,0,.06,0,.3.17s0,0,0,0a.06.06,0,0,1,0,.06.61.61,0,0,1-.17.24.49.49,0,0,1-.24.14.7.7,0,0,1-.29,0,1,1,0,0,1-.31-.11,1.05,1.05,0,0,1-.27-.24.73.73,0,0,1-.16-.3,1,1,0,0,1-.05-.34,2,2,0,0,1,.06-.34c0-.08.06-.17.1-.26s.07-.18.11-.26a.83.83,0,0,1,.17-.27.63.63,0,0,1,.24-.17.73.73,0,0,1,.3-.05.75.75,0,0,1,.32.12.82.82,0,0,1,.27.22,1.17,1.17,0,0,1,.17.28.91.91,0,0,1,.06.32.86.86,0,0,1-.05.32l0,0h-.05l-.3-.17-.05,0v-.09a.26.26,0,0,0,0-.09.18.18,0,0,0,0-.1.3.3,0,0,0-.06-.11l-.12-.1a.27.27,0,0,0-.14,0,.16.16,0,0,0-.12,0,.25.25,0,0,0-.1.08A.63.63,0,0,0,347.15,409.1Z" style="fill:#1472F4"></path><path d="M349.27,411.3a.1.1,0,0,1,0,.05.17.17,0,0,1,0,.07l-.12.31s0,0,0,0h-.05l-1.11-.64a.06.06,0,0,1,0-.05.06.06,0,0,1,0-.06l.74-1.9a.08.08,0,0,1,0,0h0l1.09.63a.07.07,0,0,1,0,.05.13.13,0,0,1,0,.06l-.12.31a.07.07,0,0,1,0,.05h-.05l-.72-.42-.12.32.66.38a.1.1,0,0,1,0,.05v.07l-.13.31a.07.07,0,0,1,0,.05h-.05l-.67-.38-.13.33Z" style="fill:#1472F4"></path></g><path d="M355.68,367.3l28.51-16.43a4.27,4.27,0,0,1,4.29,0l16.38,9.45A4.29,4.29,0,0,1,407,364l.46,24a4.28,4.28,0,0,1-2.15,3.72l-29,16.7V379.23Z" style="fill:#fafafa"></path><path d="M376.83,360.68c1.2-.71,2.4-1.4,3.6-2.12l1.79-1.07,1.77-1.1-1.84,1-1.82,1c-1.22.68-2.42,1.38-3.63,2.07s-2.41,1.39-3.6,2.11-2.39,1.43-3.57,2.17c1.23-.65,2.45-1.33,3.67-2Zm15.65,2.66-1.82,1c-1.22.67-2.42,1.37-3.63,2.06s-2.41,1.4-3.6,2.11S381,370,379.86,370.7c1.23-.65,2.45-1.32,3.67-2l3.62-2.06,3.61-2.11,1.78-1.08c.6-.36,1.19-.72,1.78-1.1Zm-9-3,1.79-1.07,1.77-1.1c-.62.32-1.22.66-1.84,1l-1.82,1c-1.22.68-2.42,1.38-3.63,2.06s-2.41,1.4-3.6,2.12-2.39,1.43-3.57,2.17c1.23-.65,2.45-1.33,3.67-2s2.42-1.38,3.63-2.07S382.33,361.07,383.53,360.35Zm.53,4.5,3.6-2.11,1.79-1.08,1.77-1.09c-.61.32-1.22.66-1.84,1l-1.82,1c-1.22.68-2.42,1.37-3.63,2.06s-2.41,1.4-3.6,2.11-2.39,1.43-3.57,2.17c1.23-.65,2.45-1.32,3.67-2Z" style="fill:#e0e0e0"></path><path d="M403.5,392.76l-4.25-2s.33-4,3.14-3S403.5,392.76,403.5,392.76Z" style="fill:#37474f"></path><path d="M401.17,392.25l.91-1.82-2.18-1.26h0a2.58,2.58,0,0,0-2.62.23,9,9,0,0,0-3.9,7.15,3.19,3.19,0,0,0,1.24,2.88h0l2.23,1.29,1-1.92A9.36,9.36,0,0,0,401.17,392.25Z" style="fill:#263238"></path><path d="M403.43,393.36a9.33,9.33,0,0,1-3,6.54h0a6,6,0,0,1-.86.62c-2.15,1.24-3.89.05-3.89-2.66a9.36,9.36,0,0,1,2.41-5.93h0a6.11,6.11,0,0,1,1.47-1.21C401.69,389.47,403.43,390.66,403.43,393.36Z" style="fill:#37474f"></path><path d="M399.54,392.34c1.37-.79,2.48,0,2.48,1.84a5.89,5.89,0,0,1-2.48,4.7c-1.37.79-2.48,0-2.48-1.84A5.9,5.9,0,0,1,399.54,392.34Z" style="fill:#455a64"></path><path d="M399.54,393.92c.71-.41,1.29,0,1.29.95a3.06,3.06,0,0,1-1.29,2.44c-.71.41-1.28,0-1.28-1A3,3,0,0,1,399.54,393.92Z" style="fill:#e0e0e0"></path><path d="M400,393.9a1.31,1.31,0,0,1,.28-.12c.36.1.6.49.6,1.09a3.28,3.28,0,0,1-.72,1.94l-.16.1c-.63.37-1.14,0-1.14-.84A2.71,2.71,0,0,1,400,393.9Z" style="fill:#f5f5f5"></path><path d="M403.43,393.36a9.33,9.33,0,0,1-3,6.54,11,11,0,0,0,2.47-4.78c.33-1.56.21-3.8-1.13-4.37s-3.11.63-3.67,1.17a6.11,6.11,0,0,1,1.47-1.21C401.69,389.47,403.43,390.66,403.43,393.36Z" style="fill:#455a64"></path><path d="M407,364.1s.46,13.69.46,23.9a4.3,4.3,0,0,1-2.14,3.71l-1.82,1.05v-.4c0-2.55-1.52-3.79-3.57-3.17h0l-.33.11a5.3,5.3,0,0,0-.76.37,10.29,10.29,0,0,0-4.69,8.09,1.79,1.79,0,0,0,0,.36l-17.84,10.29V379.23l28.45-16.4A1.46,1.46,0,0,1,407,364.1Z" style="fill:#e0e0e0"></path><path d="M383,380.71l-7.74,4.47a2,2,0,0,0-.93,1.62v6.82c0,.59.41.83.93.54L383,389.7a2,2,0,0,0,.93-1.62v-6.83C383.91,380.66,383.49,380.42,383,380.71Z" style="fill:#37474f"></path><path d="M408.37,387.87l-.91-.53v.6l-1.68,1v2.5l.46.26,2.13-1.23a.67.67,0,0,0,.34-.58v-1.41A.66.66,0,0,0,408.37,387.87Z" style="fill:#263238"></path><polygon points="406.24 391.67 405.78 391.41 405.78 388.91 405.78 388.91 406.24 389.18 406.24 391.67" style="fill:#37474f"></polygon><path d="M405.78,388.91l.46.27,1.95-1.15a.16.16,0,0,0,0-.27l-.72-.42v.6Z" style="fill:#455a64"></path><path d="M355.37,415.82l3.12-1.79h0c1.25-1.75,3.3-3.76,5.62-3.24L396,392.45c1.25-1.77,3.29-3.81,5.64-3.33.08.1.6-.28.67-.3s4.84-2.78,5.17-3c0-1.38,0-2.8,0-4.22l-50,28.76a3.63,3.63,0,0,0-1.42,1.46l-1.62,3A.7.7,0,0,0,355.37,415.82Z" style="fill:#1472F4"></path><path d="M355.37,415.82l3.12-1.79h0c1.25-1.75,3.3-3.76,5.62-3.24L396,392.45c1.26-1.79,3.35-3.88,5.73-3.3h0l.58-.33c.17-.11,4.84-2.78,5.17-3,0-1.38,0-2.8,0-4.22l-50,28.76a3.63,3.63,0,0,0-1.42,1.46l-1.62,3A.7.7,0,0,0,355.37,415.82Z" style="opacity:0.2"></path><path d="M373,410.35l-.63.36v-29c.2-.16.41-.3.63-.45Z" style="opacity:0.2"></path><path d="M403.8,388.87v.49c0,.1.07.14.16.09l.87-.5a.37.37,0,0,0,.16-.27v-.49a.1.1,0,0,0-.16-.09l-.87.5A.34.34,0,0,0,403.8,388.87Z" style="fill:#fff"></path><path d="M373,383.51v.7l3.35-1.93L407,364.6c0-.33,0-.5,0-.5a1.09,1.09,0,0,0,0-.18l-30.64,17.66Z" style="fill:#1472F4"></path><path d="M373,383.51v.7l3.35-1.93L407,364.6c0-.33,0-.5,0-.5a1.09,1.09,0,0,0,0-.18l-30.64,17.66Z" style="opacity:0.2"></path><polygon points="391.56 379.37 392.97 376.38 394.65 377.19 394.65 374.34 396.65 373.18 396.65 376.03 398.32 373.29 399.74 374.65 397.38 378.52 399.74 379.66 398.32 382.66 396.65 381.85 396.65 384.69 394.65 385.85 394.65 383 392.97 385.75 391.56 384.39 393.91 380.52 391.56 379.37" style="fill:#1472F4"></polygon><polygon points="391.56 379.37 392.97 376.38 394.65 377.19 394.65 374.34 396.65 373.18 396.65 376.03 398.32 373.29 399.74 374.65 397.38 378.52 399.74 379.66 398.32 382.66 396.65 381.85 396.65 384.69 394.65 385.85 394.65 383 392.97 385.75 391.56 384.39 393.91 380.52 391.56 379.37" style="opacity:0.2"></polygon><path d="M371.17,405.68l-.6.34c-.14.08-.24,0-.24-.18v-1.76a.58.58,0,0,1,.24-.47l.6-.34c.13-.08.24,0,.24.18v1.77A.6.6,0,0,1,371.17,405.68Z" style="fill:#263238"></path><path d="M374.94,403.52l-.6.35c-.14.07-.24,0-.24-.19v-1.76a.54.54,0,0,1,.24-.46l.6-.35c.13-.08.24,0,.24.18v1.77A.59.59,0,0,1,374.94,403.52Z" style="fill:#263238"></path><polygon points="372.68 377.56 354.96 367.33 358.5 365.29 376.23 375.52 372.68 377.56" style="fill:#1472F4"></polygon><polygon points="372.68 377.56 354.96 367.33 358.5 365.29 376.23 375.52 372.68 377.56" style="fill:#fff;opacity:0.6000000000000001"></polygon><polygon points="354.96 367.33 353.91 369.27 372.68 380.11 372.68 377.56 354.96 367.33" style="fill:#1472F4"></polygon><polygon points="354.96 367.33 353.91 369.27 372.68 380.11 372.68 377.56 354.96 367.33" style="fill:#fff;opacity:0.4"></polygon><polygon points="376.23 375.52 377.26 377.46 372.68 380.11 372.68 377.56 376.23 375.52" style="fill:#1472F4"></polygon><polygon points="376.23 375.52 377.26 377.46 372.68 380.11 372.68 377.56 376.23 375.52" style="fill:#fff;opacity:0.25"></polygon><polygon points="365.59 373.47 369.14 371.43 365.59 369.38 362.05 371.43 365.59 373.47" style="fill:#fafafa"></polygon><polygon points="365.59 373.47 364.79 375.56 361.11 373.43 362.05 371.43 365.59 373.47" style="fill:#ebebeb"></polygon></g></g></svg>